<svg width="24" height="24" viewBox="0 0 24 24" fill="none" xmlns="http://www.w3.org/2000/svg">
<path fill-rule="evenodd" clip-rule="evenodd" d="M1.99994 4.99968C1.99994 4.44757 2.44751 4 2.99962 4H20.9958C21.5479 4 21.9955 4.44757 21.9955 4.99968V14.7482H1.99994V4.99968ZM2.99962 3C1.89523 3 0.999939 3.89529 0.999939 4.99968V16.9971C0.999939 18.1015 1.89523 18.9968 2.99962 18.9968H10.0605L9.81053 20.9964H6.74884C6.4727 20.9964 6.24884 21.2203 6.24884 21.4964C6.24884 21.7726 6.4727 21.9964 6.74884 21.9964H17.2466C17.5228 21.9964 17.7466 21.7726 17.7466 21.4964C17.7466 21.2203 17.5228 20.9964 17.2466 20.9964H14.1845L13.9346 18.9968H20.9958C22.1002 18.9968 22.9955 18.1015 22.9955 16.9971V4.99968C22.9955 3.89529 22.1002 3 20.9958 3H2.99962ZM11.5811 17.6212C11.7044 17.7036 11.8494 17.7476 11.9977 17.7476C12.1966 17.7476 12.3873 17.6686 12.5279 17.5279C12.6685 17.3873 12.7476 17.1966 12.7476 16.9977C12.7476 16.8494 12.7036 16.7044 12.6212 16.5811C12.5388 16.4578 12.4217 16.3617 12.2847 16.305C12.1476 16.2482 11.9969 16.2334 11.8514 16.2623C11.706 16.2912 11.5724 16.3626 11.4675 16.4675C11.3626 16.5724 11.2912 16.706 11.2623 16.8514C11.2333 16.9969 11.2482 17.1477 11.3049 17.2847C11.3617 17.4217 11.4578 17.5388 11.5811 17.6212Z" fill="white" fill-opacity="0.88"/>
</svg>
