<svg width="20" height="20" viewBox="0 0 20 20" fill="none" xmlns="http://www.w3.org/2000/svg">
<path d="M7.29166 11.25C8.57182 11.25 9.64457 12.1381 9.92716 13.3319L17.7083 13.3333C18.0535 13.3333 18.3333 13.6131 18.3333 13.9583C18.3333 14.2747 18.0982 14.5362 17.7932 14.5776L17.7083 14.5833L9.92741 14.5839C9.64507 15.7781 8.57216 16.6666 7.29166 16.6666C6.0112 16.6666 4.93827 15.7781 4.65592 14.5839L2.29166 14.5833C1.94648 14.5833 1.66666 14.3035 1.66666 13.9583C1.66666 13.6419 1.90178 13.3804 2.20685 13.339L2.29166 13.3333L4.65592 13.3327C4.93827 12.1386 6.0112 11.25 7.29166 11.25ZM7.29166 12.5C6.65487 12.5 6.11341 12.9081 5.9146 13.4771L5.89746 13.5293L5.86538 13.6528C5.84437 13.7513 5.83332 13.8535 5.83332 13.9583C5.83332 14.0873 5.85008 14.2125 5.88153 14.3316L5.91471 14.4399L5.93612 14.4971C6.15045 15.0359 6.67658 15.4166 7.29166 15.4166C7.92812 15.4166 8.46932 15.0089 8.66841 14.4404L8.70182 14.3315L8.68757 14.3817C8.72816 14.2477 8.74999 14.1056 8.74999 13.9583C8.74999 13.871 8.74232 13.7854 8.72757 13.7023L8.70257 13.5881L8.68591 13.5294L8.64691 13.4186C8.43232 12.8804 7.90641 12.5 7.29166 12.5ZM12.7083 3.33331C13.9888 3.33331 15.0617 4.22191 15.3441 5.4161L17.7083 5.41665C18.0535 5.41665 18.3333 5.69647 18.3333 6.04165C18.3333 6.35806 18.0982 6.61955 17.7932 6.66094L17.7083 6.66665L15.3441 6.6672C15.0617 7.86138 13.9888 8.74998 12.7083 8.74998C11.4278 8.74998 10.3549 7.86138 10.0726 6.6672L2.29166 6.66665C1.94648 6.66665 1.66666 6.38682 1.66666 6.04165C1.66666 5.72523 1.90178 5.46374 2.20685 5.42235L2.29166 5.41665L10.0728 5.41525C10.3554 4.2215 11.4282 3.33331 12.7083 3.33331ZM12.7083 4.58331C12.0716 4.58331 11.5301 4.99145 11.3312 5.5604L11.3142 5.6126L11.2821 5.73612C11.2611 5.83465 11.25 5.93685 11.25 6.04165C11.25 6.17067 11.2667 6.29579 11.2982 6.41493L11.3314 6.5232L11.3528 6.58051C11.5671 7.1192 12.0932 7.49998 12.7083 7.49998C13.3448 7.49998 13.886 7.09225 14.0851 6.52375L14.1185 6.41482L14.1042 6.46505C14.1448 6.33105 14.1667 6.1889 14.1667 6.04165C14.1667 5.9543 14.159 5.86873 14.1442 5.7856L14.1192 5.67135L14.1026 5.61272L14.0636 5.50195C13.849 4.9637 13.3231 4.58331 12.7083 4.58331Z" fill="white" fill-opacity="0.48"/>
</svg>
