<svg width="16" height="16" viewBox="0 0 16 16" fill="none" xmlns="http://www.w3.org/2000/svg">
<path fill-rule="evenodd" clip-rule="evenodd" d="M11.0387 10.0239L10.9339 10.1635L13.8645 13.0942C13.9553 13.1976 14.0036 13.3316 13.9998 13.4694C13.9959 13.6088 13.9387 13.7415 13.8401 13.8401C13.7415 13.9387 13.6088 13.9959 13.4694 13.9998C13.3316 14.0036 13.1976 13.9553 13.0942 13.8645L10.1635 10.9339L10.0239 11.0387C9.15769 11.6894 8.10311 12.0406 7.01973 12.0395C4.25205 12.0395 2 9.78741 2 7.01973C2 4.25205 4.25205 2 7.01973 2C9.78741 2 12.0395 4.25227 12.0395 7.01995C12.0406 8.10333 11.6894 9.15769 11.0387 10.0239ZM4.2419 9.79755C4.97866 10.5343 5.97756 10.9488 7.01949 10.95C7.79682 10.95 8.55695 10.7195 9.20328 10.2876C9.84961 9.85578 10.3534 9.24195 10.6508 8.52378C10.9483 7.80562 11.0262 7.01537 10.8745 6.25297C10.7228 5.49056 10.3485 4.79025 9.79886 4.24059C9.2492 3.69093 8.54889 3.31661 7.78649 3.16495C7.02409 3.0133 6.23384 3.09114 5.51567 3.38861C4.7975 3.68609 4.18367 4.18984 3.75181 4.83617C3.31994 5.48251 3.08944 6.24263 3.08944 7.01997C3.09069 8.0619 3.50514 9.0608 4.2419 9.79755Z" fill="white" fill-opacity="0.32"/>
</svg>
