<svg width="32" height="32" viewBox="0 0 32 32" fill="none" xmlns="http://www.w3.org/2000/svg">
<path d="M14.0681 20.1957V20.0143C14.0811 18.8305 14.2011 17.8886 14.4282 17.1885C14.6618 16.4885 14.9927 15.922 15.4209 15.4893C15.8491 15.0565 16.365 14.6619 16.9684 14.3055C17.3577 14.0636 17.708 13.7932 18.0195 13.494C18.3309 13.1949 18.5775 12.8512 18.7591 12.463C18.9408 12.0748 19.0316 11.6452 19.0316 11.1742C19.0316 10.6078 18.8954 10.1177 18.6229 9.70406C18.3504 9.29037 17.987 8.97216 17.5328 8.7494C17.0852 8.52029 16.5856 8.40573 16.0341 8.40573C15.5345 8.40573 15.0576 8.50756 14.6034 8.71122C14.1492 8.91488 13.7729 9.23309 13.4745 9.66587C13.176 10.0923 13.0041 10.6428 12.9586 11.3174H10C10.0454 10.1718 10.3406 9.20446 10.8856 8.41527C11.4307 7.61973 12.1509 7.0183 13.0462 6.61098C13.9481 6.20366 14.944 6 16.0341 6C17.2279 6 18.2725 6.21957 19.1679 6.65871C20.0633 7.09149 20.7575 7.69928 21.2506 8.4821C21.7502 9.25855 22 10.1655 22 11.2029C22 11.9157 21.8865 12.5585 21.6594 13.1313C21.4323 13.6977 21.1079 14.2037 20.6861 14.6492C20.2709 15.0947 19.7713 15.4893 19.1873 15.8329C18.6358 16.1702 18.1882 16.5203 17.8443 16.8831C17.5069 17.2458 17.2603 17.6754 17.1046 18.1718C16.9489 18.6683 16.8646 19.2824 16.8516 20.0143V20.1957H14.0681ZM15.5377 26C15.0057 26 14.5483 25.8154 14.1655 25.4463C13.7826 25.0708 13.5912 24.6189 13.5912 24.0907C13.5912 23.5688 13.7826 23.1233 14.1655 22.7542C14.5483 22.3787 15.0057 22.1909 15.5377 22.1909C16.0633 22.1909 16.5174 22.3787 16.9002 22.7542C17.2895 23.1233 17.4842 23.5688 17.4842 24.0907C17.4842 24.4407 17.3933 24.7621 17.2117 25.0549C17.0365 25.3413 16.8029 25.5704 16.5109 25.7422C16.219 25.9141 15.8946 26 15.5377 26Z" fill="white" fill-opacity="0.32"/>
</svg>
