<svg width="32" height="32" viewBox="0 0 32 32" fill="none" xmlns="http://www.w3.org/2000/svg">
<g clip-path="url(#clip0_35951_36133)">
<path d="M0 8C0 3.58172 3.58172 0 8 0H24C28.4183 0 32 3.58172 32 8V24C32 28.4183 28.4183 32 24 32H8C3.58172 32 0 28.4183 0 24V8Z" fill="url(#paint0_linear_35951_36133)"/>
<path d="M0.25 8C0.25 3.71979 3.71979 0.25 8 0.25H24C28.2802 0.25 31.75 3.71979 31.75 8V24C31.75 28.2802 28.2802 31.75 24 31.75H8C3.71979 31.75 0.25 28.2802 0.25 24V8Z" stroke="#999EC7" stroke-opacity="0.16" stroke-width="0.5"/>
<path d="M17.0524 17.0524H22.9439C23.2232 17.0526 23.4913 16.9419 23.689 16.7445C23.8867 16.5472 23.9979 16.2794 23.9981 16C23.9984 15.7206 23.8876 15.4526 23.6903 15.2549C23.4929 15.0572 23.2251 14.946 22.9457 14.9457H17.0543V9.05426C17.0543 8.77466 16.9432 8.5065 16.7455 8.30879C16.5478 8.11107 16.2796 8 16 8C15.7204 8 15.4522 8.11107 15.2545 8.30879C15.0568 8.5065 14.9457 8.77466 14.9457 9.05426L14.9457 14.9457H9.05426C8.77466 14.9457 8.5065 15.0568 8.30879 15.2545C8.11107 15.4522 8 15.7204 8 16C8 16.2796 8.11107 16.5478 8.30879 16.7455C8.5065 16.9432 8.77466 17.0543 9.05426 17.0543H14.9457V22.9457C14.9457 23.2253 15.0568 23.4935 15.2545 23.6912C15.4522 23.8889 15.7204 24 16 24C16.2796 24 16.5478 23.8889 16.7455 23.6912C16.9432 23.4935 17.0543 23.2253 17.0543 22.9457L17.0524 17.0524Z" fill="#1F78FF"/>
</g>
<defs>
<linearGradient id="paint0_linear_35951_36133" x1="-4.48" y1="10.72" x2="32" y2="23.84" gradientUnits="userSpaceOnUse">
<stop offset="0.143519" stop-color="#1F78FF" stop-opacity="0.08"/>
<stop offset="0.476559" stop-color="#1F78FF" stop-opacity="0.4"/>
<stop offset="0.876723" stop-color="#1F78FF" stop-opacity="0.08"/>
</linearGradient>
<clipPath id="clip0_35951_36133">
<rect width="32" height="32" fill="white"/>
</clipPath>
</defs>
</svg>
