<svg width="16" height="16" viewBox="0 0 16 16" fill="none" xmlns="http://www.w3.org/2000/svg">
<path fill-rule="evenodd" clip-rule="evenodd" d="M1.33301 8.00001C1.33301 4.32405 4.32371 1.33334 7.99968 1.33334C11.6756 1.33334 14.6663 4.32405 14.6663 8.00001C14.6663 11.676 11.6756 14.6667 7.99968 14.6667C4.32371 14.6667 1.33301 11.676 1.33301 8.00001ZM8.83283 8.00001L7.99976 8.83162L5.67204 11.1608C5.56156 11.2713 5.41173 11.3333 5.2555 11.3333C5.09927 11.3333 4.94943 11.2713 4.83896 11.1608C4.72849 11.0503 4.66642 10.9005 4.66642 10.7443C4.66642 10.588 4.72849 10.4382 4.83896 10.3277L7.16668 8.00001L7.99976 7.16693L10.3275 4.83921C10.4379 4.72874 10.5878 4.66668 10.744 4.66668C10.9002 4.66668 11.0501 4.72874 11.1606 4.83921C11.271 4.94969 11.3331 5.09952 11.3331 5.25575C11.3331 5.41198 11.271 5.56182 11.1606 5.67229L8.83283 8.00001Z" fill="#E53450"/>
</svg>
