<svg width="24" height="24" viewBox="0 0 24 24" fill="none" xmlns="http://www.w3.org/2000/svg">
<path d="M11.9998 0C13.0027 7.97524e-05 13.8151 0.811853 13.8152 1.81445C13.8152 2.16831 13.7125 2.4982 13.5369 2.77734C14.0001 3.01346 14.317 3.49223 14.3171 4.04688V4.6748C18.6114 5.71606 21.8013 9.5832 21.8015 14.1973C21.8015 19.6108 17.4129 23.9999 11.9998 24C6.58654 24 2.198 19.6109 2.198 14.1973C2.19817 9.5832 5.38818 5.71676 9.68237 4.6748V4.04688C9.68247 3.49226 10.0002 3.01272 10.4626 2.77734C10.2871 2.49783 10.1853 2.16827 10.1853 1.81445C10.1858 0.811804 10.9978 0 11.9998 0ZM11.8425 8C11.6876 8.9857 11.3216 11.1013 10.9236 12.1299C10.7794 12.4958 10.4855 12.7871 10.1169 12.9287C9.08311 13.3241 6.98017 13.6878 5.99976 13.8428V14.1572C6.98017 14.3122 9.08311 14.6759 10.1169 15.0713C10.4855 15.2102 10.7794 15.5016 10.9236 15.8701C11.3216 16.9013 11.6849 19.017 11.8425 20H12.158C12.3129 19.0142 12.6789 16.8986 13.0769 15.8701C13.2212 15.5041 13.5149 15.2129 13.8835 15.0713C14.9174 14.676 17.0193 14.3122 17.9998 14.1572V13.8428C17.0193 13.6878 14.9174 13.324 13.8835 12.9287C13.5149 12.7898 13.2212 12.4985 13.0769 12.1299C12.6789 11.0987 12.3156 8.98311 12.158 8H11.8425ZM11.9998 0.725586C11.6985 0.725961 11.4277 0.846695 11.2292 1.04395C11.0317 1.24269 10.9113 1.51295 10.9109 1.81445C10.9113 2.11644 11.0317 2.38659 11.2292 2.58496C11.2429 2.5986 11.2598 2.60865 11.2742 2.62109H12.7263C12.7406 2.60881 12.7561 2.59843 12.7693 2.58496C12.9673 2.38659 13.0886 2.11647 13.0886 1.81445C13.0886 1.51295 12.9673 1.24269 12.7693 1.04395C12.5713 0.846926 12.3019 0.726 11.9998 0.725586Z" fill="#FFFFFF"/>
</svg>
