<svg width="32" height="32" viewBox="0 0 32 32" fill="none" xmlns="http://www.w3.org/2000/svg">
<g clip-path="url(#clip0_35787_35991)">
<path d="M0 8C0 3.58172 3.58172 0 8 0H24C28.4183 0 32 3.58172 32 8V24C32 28.4183 28.4183 32 24 32H8C3.58172 32 0 28.4183 0 24V8Z" fill="url(#paint0_linear_35787_35991)"/>
<path fill-rule="evenodd" clip-rule="evenodd" d="M6 20.444V11.5538C6 11.1768 6.21208 10.8318 6.54852 10.6616L15.5485 6.10772C15.8324 5.96409 16.1676 5.96409 16.4515 6.10772L25.4515 10.6616C25.7879 10.8318 26 11.1768 26 11.5538V20.444C26 20.8211 25.7879 21.1661 25.4515 21.3363L16.4515 25.8901C16.1676 26.0337 15.8324 26.0337 15.5485 25.8901L6.54852 21.3363C6.21208 21.1661 6 20.8211 6 20.444ZM8.17081 12.0373C8.02454 11.9633 8.02454 11.7544 8.17081 11.6804L15.7742 7.83322C15.9161 7.76141 16.0837 7.76141 16.2257 7.83322L23.8291 11.6804C23.9753 11.7544 23.9753 11.9633 23.8291 12.0373L16.2257 15.8845C16.0837 15.9563 15.9161 15.9563 15.7742 15.8845L8.17081 12.0373ZM17.1834 17.2399C17.0152 17.3251 16.9092 17.4976 16.9092 17.6861V23.0332C16.9092 23.1822 17.0664 23.2789 17.1995 23.2116L23.9076 19.8174C24.0759 19.7323 24.1819 19.5598 24.1819 19.3713V14.0242C24.1819 13.8751 24.0246 13.7784 23.8916 13.8457L17.1834 17.2399Z" fill="white" fill-opacity="0.48"/>
</g>
<defs>
<linearGradient id="paint0_linear_35787_35991" x1="32" y1="32" x2="-1.75051e-05" y2="1.75051e-05" gradientUnits="userSpaceOnUse">
<stop stop-color="#434852"/>
<stop offset="1" stop-color="#787F92"/>
</linearGradient>
<clipPath id="clip0_35787_35991">
<rect width="32" height="32" fill="white"/>
</clipPath>
</defs>
</svg>
