<svg width="24" height="24" viewBox="0 0 24 24" fill="none" xmlns="http://www.w3.org/2000/svg">
<g clip-path="url(#clip0_11851_22054)">
<path fill-rule="evenodd" clip-rule="evenodd" d="M14.9211 13.3421C15.7059 13.3421 16.3421 12.7059 16.3421 11.9211C16.3421 11.1362 15.7059 10.5 14.9211 10.5C14.1362 10.5 13.5 11.1362 13.5 11.9211C13.5 12.7059 14.1362 13.3421 14.9211 13.3421ZM14.9211 16.8947C15.7059 16.8947 16.3421 16.2585 16.3421 15.4737C16.3421 14.6889 15.7059 14.0526 14.9211 14.0526C14.1362 14.0526 13.5 14.6889 13.5 15.4737C13.5 16.2585 14.1362 16.8947 14.9211 16.8947ZM16.3421 19.0263C16.3421 19.8111 15.7059 20.4474 14.9211 20.4474C14.1362 20.4474 13.5 19.8111 13.5 19.0263C13.5 18.2415 14.1362 17.6053 14.9211 17.6053C15.7059 17.6053 16.3421 18.2415 16.3421 19.0263ZM18.4737 13.3421C19.2585 13.3421 19.8947 12.7059 19.8947 11.9211C19.8947 11.1362 19.2585 10.5 18.4737 10.5C17.6889 10.5 17.0526 11.1362 17.0526 11.9211C17.0526 12.7059 17.6889 13.3421 18.4737 13.3421ZM19.8947 15.4737C19.8947 16.2585 19.2585 16.8947 18.4737 16.8947C17.6889 16.8947 17.0526 16.2585 17.0526 15.4737C17.0526 14.6889 17.6889 14.0526 18.4737 14.0526C19.2585 14.0526 19.8947 14.6889 19.8947 15.4737ZM18.4737 20.4474C19.2585 20.4474 19.8947 19.8111 19.8947 19.0263C19.8947 18.2415 19.2585 17.6053 18.4737 17.6053C17.6889 17.6053 17.0526 18.2415 17.0526 19.0263C17.0526 19.8111 17.6889 20.4474 18.4737 20.4474ZM23.4474 11.9211C23.4474 12.7059 22.8111 13.3421 22.0263 13.3421C21.2415 13.3421 20.6053 12.7059 20.6053 11.9211C20.6053 11.1362 21.2415 10.5 22.0263 10.5C22.8111 10.5 23.4474 11.1362 23.4474 11.9211ZM22.0263 16.8947C22.8111 16.8947 23.4474 16.2585 23.4474 15.4737C23.4474 14.6889 22.8111 14.0526 22.0263 14.0526C21.2415 14.0526 20.6053 14.6889 20.6053 15.4737C20.6053 16.2585 21.2415 16.8947 22.0263 16.8947ZM23.4474 19.0263C23.4474 19.8111 22.8111 20.4474 22.0263 20.4474C21.2415 20.4474 20.6053 19.8111 20.6053 19.0263C20.6053 18.2415 21.2415 17.6053 22.0263 17.6053C22.8111 17.6053 23.4474 18.2415 23.4474 19.0263ZM18.4737 24C19.2585 24 19.8947 23.3638 19.8947 22.5789C19.8947 21.7941 19.2585 21.1579 18.4737 21.1579C17.6889 21.1579 17.0526 21.7941 17.0526 22.5789C17.0526 23.3638 17.6889 24 18.4737 24Z" fill="#1F78FF"/>
<path fill-rule="evenodd" clip-rule="evenodd" d="M9 2.25C5.27208 2.25 2.25 5.27208 2.25 9C2.25 12.7279 5.27208 15.75 9 15.75C9.79027 15.75 10.5473 15.6145 11.2501 15.3661C11.6406 15.2281 12.0691 15.4328 12.2071 15.8233C12.3452 16.2138 12.1405 16.6423 11.7499 16.7804C10.8888 17.0847 9.96291 17.25 9 17.25C4.44365 17.25 0.75 13.5563 0.75 9C0.75 4.44365 4.44365 0.75 9 0.75C13.5563 0.75 17.25 4.44365 17.25 9C17.25 9.41421 16.9142 9.75 16.5 9.75C16.0858 9.75 15.75 9.41421 15.75 9C15.75 5.27208 12.7279 2.25 9 2.25Z" fill="#1F78FF"/>
<path fill-rule="evenodd" clip-rule="evenodd" d="M13.0303 6.46967C13.3232 6.76256 13.3232 7.23744 13.0303 7.53033L8.03033 12.5303C7.73744 12.8232 7.26256 12.8232 6.96967 12.5303L4.46967 10.0303C4.17678 9.73744 4.17678 9.26256 4.46967 8.96967C4.76256 8.67678 5.23744 8.67678 5.53033 8.96967L7.5 10.9393L11.9697 6.46967C12.2626 6.17678 12.7374 6.17678 13.0303 6.46967Z" fill="#1F78FF"/>
</g>
<defs>
<clipPath id="clip0_11851_22054">
<rect width="24" height="24" fill="white"/>
</clipPath>
</defs>
</svg>
