<svg width="24" height="24" viewBox="0 0 24 24" fill="none" xmlns="http://www.w3.org/2000/svg">
<g clip-path="url(#clip0_4812_22530)">
<path fill-rule="evenodd" clip-rule="evenodd" d="M1.95182 17.6745C1.3462 17.8013 0.962024 18.0276 0.867487 18.3561C0.529282 19.5312 4.02041 21.5678 8.66559 22.9048C13.3103 24.2415 17.35 24.3728 17.6883 23.1975C17.8203 22.739 17.369 22.1493 16.4939 21.5211C16.2051 20.6186 16.1384 19.556 16.158 18.4295C16.063 15.5763 15.7055 12.2298 15.1611 9.29712C14.9895 9.11219 14.7956 8.94297 14.5758 8.79183L14.5554 8.78533C14.6031 8.59401 14.6322 8.39158 14.6391 8.18171C14.6532 7.75818 14.5762 7.35912 14.4307 7.01536C14.7645 6.6495 15.043 6.1123 15.1906 5.48316C15.4945 4.18871 15.1293 2.99577 14.3751 2.81875C13.6207 2.64161 12.7629 3.54763 12.4591 4.84208C12.3647 5.24457 12.3348 5.63725 12.3614 5.99271C12.5583 6.79698 12.1617 7.05908 11.6955 7.63245C9.76718 9.43219 7.77364 14.1835 4.72506 14.4541C4.32683 15.297 3.90354 16.0831 3.39694 16.7138C3.02328 17.0679 2.49305 17.3807 1.95182 17.6745ZM14.2641 7.60019C14.1637 7.61236 14.2405 7.5105 14.057 7.46748C13.8735 7.42447 12.5132 7.6419 12.356 7.36196C12.3529 7.50612 12.1165 7.89455 11.846 8.20298L13.9081 8.58101C14.0534 8.60618 14.1583 8.61421 14.1994 8.45019C14.2405 8.28617 14.3318 7.81349 14.2641 7.60019ZM9.01361 19.7044C8.18381 19.6768 7.48884 20.3271 7.46131 21.1569C7.44748 21.5692 7.60123 21.9483 7.86108 22.2285C4.5465 21.1511 2.17422 19.6827 2.42687 18.8045C2.70256 17.847 5.99339 17.9537 9.77734 19.043C13.5612 20.1321 16.4052 21.7912 16.1299 22.7484C15.8678 23.6586 12.8805 23.6068 9.33527 22.6638C9.96689 22.5029 10.4432 21.941 10.4659 21.2569C10.4936 20.4272 9.84328 19.732 9.01361 19.7044Z" fill="#FFFFFF"/>
<path fill-rule="evenodd" clip-rule="evenodd" d="M7.91629 0.320186L12.5614 2.9294C11.8018 3.5888 11.5542 4.54256 11.7097 5.72817C6.97978 3.9803 5.13383 3.99259 5.9459 4.96088C6.67892 5.42305 9.55579 5.68621 11.1459 5.86276L11.1613 5.86312L11.162 5.86453L11.1673 5.86513L11.1636 5.86879L11.3568 7.05983C9.18698 9.08493 6.83041 12.9456 4.04926 13.211L4.19946 11.2489L0.399902 10.5773L9.78835 6.11707C7.5268 6.01083 5.74738 6.04037 5.24125 5.49513C3.78692 3.35954 5.96942 -1.25102 7.91629 0.320186Z" fill="#FFFFFF"/>
<path fill-rule="evenodd" clip-rule="evenodd" d="M21.8445 3.40256L16.5236 3.67258C16.9105 4.60116 16.7079 5.56544 16.0411 6.55808C21.0548 7.09717 22.7024 7.92945 21.5444 8.43534C20.6822 8.52314 17.6855 7.38634 16.183 6.83708L16.169 6.83046L16.1678 6.83141L16.1627 6.82963L16.1644 6.83448L15.3792 7.51254C16.2458 11.5568 17.9975 13.6492 18.0944 17.1336L20.6503 14.7444L23.1038 15.2423L17.5888 7.76118C19.6614 8.67227 21.242 9.49037 21.9378 9.22732C24.1903 7.96183 24.2871 2.86169 21.8445 3.40256Z" fill="#FFFFFF"/>
</g>
<defs>
<clipPath id="clip0_4812_22530">
<rect width="24" height="24" fill="white"/>
</clipPath>
</defs>
</svg>
