<svg width="20" height="20" viewBox="0 0 20 20" fill="none" xmlns="http://www.w3.org/2000/svg">
<path fill-rule="evenodd" clip-rule="evenodd" d="M13.7984 12.5298L13.6673 12.7043L17.3307 16.3676C17.4441 16.497 17.5046 16.6645 17.4997 16.8366C17.4949 17.0109 17.4234 17.1768 17.3001 17.3001C17.1768 17.4234 17.011 17.4948 16.8367 17.4997C16.6646 17.5045 16.4971 17.444 16.3677 17.3306L12.7044 13.6673L12.5299 13.7983C11.4471 14.6117 10.1289 15.0507 8.77466 15.0493C5.31506 15.0493 2.5 12.2342 2.5 8.7746C2.5 5.315 5.31506 2.49994 8.77466 2.49994C12.2343 2.49994 15.0493 5.31527 15.0493 8.77487C15.0508 10.1291 14.6117 11.4471 13.7984 12.5298ZM5.30238 12.2469C6.22332 13.1678 7.47194 13.6859 8.77436 13.6875C9.74603 13.6875 10.6962 13.3993 11.5041 12.8595C12.312 12.3197 12.9417 11.5524 13.3136 10.6547C13.6854 9.75696 13.7827 8.76915 13.5931 7.81615C13.4036 6.86314 12.9357 5.98775 12.2486 5.30068C11.5615 4.6136 10.6861 4.1457 9.73311 3.95613C8.78011 3.76657 7.7923 3.86386 6.89459 4.2357C5.99688 4.60755 5.22959 5.23724 4.68976 6.04516C4.14993 6.85307 3.86179 7.80323 3.86179 8.7749C3.86336 10.0773 4.38143 11.3259 5.30238 12.2469Z" fill="white" fill-opacity="0.48"/>
</svg>
