<svg width="16" height="16" viewBox="0 0 16 16" fill="none" xmlns="http://www.w3.org/2000/svg">
<path fill-rule="evenodd" clip-rule="evenodd" d="M1.33331 7.99968C1.33331 4.32371 4.32402 1.33301 7.99998 1.33301C11.6759 1.33301 14.6666 4.32371 14.6666 7.99968C14.6666 11.6756 11.6759 14.6663 7.99998 14.6663C4.32402 14.6663 1.33331 11.6756 1.33331 7.99968ZM11.0936 4.76833C11.2569 4.75532 11.4187 4.80709 11.5441 4.91245C11.6696 5.01781 11.7485 5.1683 11.7639 5.33139C11.7792 5.49448 11.7298 5.65706 11.6263 5.784L11.6254 5.78512L7.22773 11.0204C7.17028 11.0888 7.09878 11.1441 7.0181 11.1825C6.93742 11.2209 6.84942 11.2415 6.76008 11.2429L6.7585 11.2429L6.74966 11.2429C6.66226 11.2429 6.57581 11.2245 6.49599 11.1889C6.41617 11.1533 6.34473 11.1014 6.28628 11.0364L4.40231 8.9431C4.34571 8.88283 4.30165 8.81189 4.27271 8.73442C4.24364 8.65658 4.23041 8.5737 4.23382 8.49067C4.23723 8.40764 4.2572 8.32613 4.29256 8.25093C4.32792 8.17572 4.37796 8.10835 4.43973 8.05276C4.5015 7.99717 4.57376 7.95449 4.65226 7.92723C4.73076 7.89996 4.81392 7.88867 4.89685 7.894C4.97978 7.89933 5.06081 7.92119 5.13517 7.95829C5.20917 7.9952 5.27508 8.04647 5.32907 8.10909L6.73332 9.6693L10.6706 4.98308L10.6715 4.98199C10.7787 4.85809 10.9303 4.78134 11.0936 4.76833Z" fill="#2FC864"/>
</svg>
