<svg width="67" height="66" viewBox="0 0 67 66" fill="none" xmlns="http://www.w3.org/2000/svg">
<path fill-rule="evenodd" clip-rule="evenodd" d="M37.327 8.33622L60.4805 51.3338C60.8371 51.9961 61.0157 52.7396 60.9989 53.4916C60.9821 54.2437 60.7705 54.9785 60.3847 55.6242C59.9989 56.27 59.4522 56.8046 58.798 57.1758C58.1437 57.547 57.4043 57.7421 56.6521 57.742H10.3411C9.58945 57.7409 8.85093 57.545 8.19762 57.1733C7.5443 56.8016 6.99851 56.2669 6.61353 55.6213C6.22854 54.9758 6.01752 54.2414 6.00104 53.4899C5.98457 52.7385 6.16322 51.9956 6.51954 51.3338L29.6717 8.33622C31.3141 5.28767 35.6859 5.28767 37.327 8.33622ZM33.4646 20.2701H33.493C33.9476 20.2699 34.3977 20.3618 34.8159 20.5402C35.234 20.7187 35.6117 20.98 35.9262 21.3085C36.2406 21.6369 36.4852 22.0257 36.6452 22.4513C36.8 22.8628 36.8275 23.2099 36.8 23.6499L36.0834 40.3426C36.0807 41.0248 35.8085 41.6785 35.3259 42.1611C34.8409 42.6461 34.1831 42.9186 33.4972 42.9186C32.8114 42.9186 32.1536 42.6461 31.6686 42.1611C31.186 41.6785 30.9138 41.0248 30.9111 40.3426L30.1318 23.7845C30.1118 23.3333 30.1828 22.8815 30.3407 22.4584C30.4986 22.0352 30.74 21.6482 31.0507 21.3203C31.3613 20.9925 31.7348 20.7306 32.1489 20.5501C32.5629 20.3697 33.0091 20.2745 33.4607 20.2701L33.4646 20.2701ZM32.8894 45.2987C33.4965 45.178 34.1257 45.2399 34.6976 45.4768C35.2695 45.7137 35.7582 46.1148 36.1021 46.6295C36.446 47.1441 36.6295 47.7492 36.6295 48.3682C36.6295 48.7791 36.5486 49.1861 36.3913 49.5658C36.234 49.9455 36.0035 50.2905 35.7129 50.5811C35.4223 50.8717 35.0773 51.1022 34.6976 51.2595C34.3179 51.4168 33.9109 51.4977 33.5 51.4977C32.881 51.4977 32.2759 51.3142 31.7613 50.9703C31.2466 50.6264 30.8455 50.1376 30.6086 49.5658C30.3718 48.9939 30.3098 48.3647 30.4305 47.7576C30.5513 47.1505 30.8494 46.5929 31.287 46.1552C31.7247 45.7175 32.2823 45.4195 32.8894 45.2987Z" fill="#EBC50A"/>
</svg>
