<svg width="24" height="24" viewBox="0 0 24 24" fill="none" xmlns="http://www.w3.org/2000/svg">
<path d="M19.7906 4.20864C19.0118 3.42982 17.9758 3 16.8774 3C15.7753 3 14.7393 3.42982 13.9605 4.20864L4.37219 13.797C4.26565 13.9035 4.19585 14.0358 4.16646 14.1827L3.01292 20.1084C2.96517 20.3545 3.05333 20.597 3.21865 20.7806C3.46479 21.0598 3.84318 20.9974 3.89093 20.9864L9.81659 19.8328C9.96354 19.8034 10.0995 19.7336 10.2023 19.6271L19.7906 10.0388C21.3997 8.43338 21.3997 5.81404 19.7906 4.20864ZM9.30595 18.4038L4.69915 19.3038L5.59552 14.697L13.2037 7.08881L16.9142 10.7992L9.30595 18.4038ZM18.7326 8.98076L17.9758 9.73754L14.2654 6.02712L15.0222 5.27034C16.6974 3.80086 18.1742 4.71194 18.7326 5.27034C19.7539 6.29162 19.7539 7.9558 18.7326 8.98076Z" fill="white" fill-opacity="0.88"/>
</svg>
