<svg fill="none" height="32" viewBox="0 0 32 32" width="32" xmlns="http://www.w3.org/2000/svg"><g fill="#ffffff"><path d="m8.00714 10.7701c-.4703 0-.85883-.352-.91579-.80675l-.00719-.1245c.00409-.46659.35463-.85092.80672-.90755l.12512-.00722 13.7687-.00001-3.3527-3.34803c-.3306-.33023-.3585-.84928-.0831-1.21099l.0887-.1006c.3305-.32467.8453-.3505 1.2047-.07688l.1011.08919 4.9161 4.91087c.3305.3302.3585.84917.0832 1.21087l-.0892.1011-4.9161 4.9226c-.3602.3607-.9446.361-1.3053.0008-.3306-.3302-.3586-.8492-.0833-1.211l.0892-.1011 3.3367-3.3408z"/><path d="m13.5832 26.424c.3305.3302.3584.8493.083 1.211l-.0887.1006c-.3306.3246-.8453.3504-1.2047.0768l-.1011-.0892-4.91609-4.9114c-.33056-.3303-.35844-.8493-.08305-1.211l.08918-.1011 4.91606-4.9207c.3603-.3607.9447-.3609 1.3054-.0006.3305.3302.3584.8492.083 1.2109l-.0892.1012-3.3366 3.3406h13.7628c.4703 0 .8588.352.9158.8068l.0072.1245c-.0041.4666-.3547.8509-.8068.9075l-.1251.0073-13.7597-.0001z"/></g></svg>