<svg width="25" height="24" viewBox="0 0 25 24" fill="none" xmlns="http://www.w3.org/2000/svg">
<path fill-rule="evenodd" clip-rule="evenodd" d="M12.5 0.5C6.14921 0.5 1 5.64666 1 11.9952C1 18.2444 5.98931 23.3291 12.2028 23.4867C12.3045 23.4958 12.407 23.5004 12.51 23.5004C12.6159 23.5004 12.7211 23.4955 12.8256 23.4859C19.0258 23.3136 24 18.2349 24 11.9952C24 5.64666 18.8508 0.5 12.5 0.5ZM22.9878 12.5052H18.9622C18.9137 14.403 18.5914 16.1861 18.0711 17.741C18.8023 18.0755 19.4926 18.4741 20.133 18.9287C20.1856 18.9661 20.2289 19.0119 20.2622 19.0628C21.8561 17.3149 22.8671 15.0266 22.9878 12.5052ZM18.9622 11.5052C18.9137 9.60775 18.5914 7.82482 18.0713 6.27012C18.8025 5.93561 19.4927 5.53711 20.133 5.08249C20.1898 5.04212 20.2357 4.99204 20.2699 4.93611C21.8636 6.68762 22.8726 8.98007 22.9888 11.5052H18.9622ZM17.9618 11.5052H13.01V7.45779C14.4654 7.40517 15.8577 7.12387 17.1443 6.65159C17.6158 8.08295 17.9142 9.7346 17.9618 11.5052ZM12.01 12.5052H7.05823C7.10585 14.2761 7.40438 15.928 7.87599 17.3595C9.16247 16.8873 10.5547 16.6061 12.01 16.5534V12.5052ZM7.05823 11.5052H12.01V7.45779C10.5546 7.40517 9.1623 7.12387 7.87576 6.6516C7.40428 8.08295 7.10584 9.73461 7.05823 11.5052ZM6.05789 11.5052H2.01124C2.12766 8.97366 3.14152 6.67598 4.74221 4.92278C4.77716 4.98409 4.82572 5.03894 4.88706 5.08249C5.52738 5.53711 6.21758 5.93562 6.94872 6.27013C6.4286 7.82482 6.10633 9.60775 6.05789 11.5052ZM6.05789 12.5052H2.01218C2.1332 15.0328 3.14889 17.3262 4.74967 19.0758C4.78395 19.0196 4.82996 18.9693 4.88706 18.9287C5.52744 18.4741 6.21772 18.0755 6.94895 17.741C6.42869 16.1861 6.10634 14.403 6.05789 12.5052ZM17.9618 12.5052H13.01V16.5534C14.4653 16.6061 15.8576 16.8873 17.1441 17.3596C17.6157 15.928 17.9142 14.2761 17.9618 12.5052ZM19.5601 19.7484C19.5581 19.747 19.5561 19.7456 19.5541 19.7441C18.9845 19.3398 18.3711 18.983 17.7213 18.6809C17.5254 19.1564 17.3101 19.6051 17.078 20.0228C16.6517 20.7898 16.1572 21.4708 15.6101 22.0224C17.0988 21.5615 18.4459 20.7785 19.5698 19.7549C19.5665 19.7527 19.5633 19.7506 19.5601 19.7484ZM16.7979 5.71348C15.6211 6.14529 14.3458 6.40501 13.01 6.45709V1.5628C14.1215 1.79535 15.2696 2.79216 16.2039 4.47341C16.4172 4.85731 16.6162 5.27191 16.7979 5.71348ZM12.01 6.45709V1.5628C10.8985 1.79536 9.75048 2.79217 8.81619 4.47341C8.60285 4.85731 8.40386 5.27192 8.22211 5.71349C9.39894 6.14529 10.6742 6.40501 12.01 6.45709ZM8.22238 18.2976C9.39915 17.8659 10.6743 17.6062 12.01 17.5541V22.4476C10.8985 22.2151 9.75048 21.2183 8.81619 19.537C8.60296 19.1533 8.40407 18.739 8.22238 18.2976ZM16.2039 19.537C15.2696 21.2183 14.1215 22.2151 13.01 22.4477V17.5541C14.3457 17.6062 15.6209 17.8659 16.7977 18.2976C16.616 18.739 16.4171 19.1533 16.2039 19.537ZM5.43846 19.7623C5.44776 19.7566 5.45694 19.7505 5.46597 19.7441C6.03553 19.3397 6.6489 18.983 7.29873 18.6809C7.49461 19.1564 7.70995 19.6051 7.94209 20.0228C8.37064 20.794 8.86814 21.4781 9.41878 22.0312C7.92222 21.5727 6.56794 20.7889 5.43846 19.7623ZM15.5813 1.95921C17.0874 2.42069 18.4494 3.21161 19.5832 4.24787C19.5734 4.2539 19.5636 4.2603 19.5541 4.2671C18.9846 4.67142 18.3713 5.02809 17.7216 5.33019C17.5256 4.85441 17.3102 4.40558 17.078 3.98766C16.6442 3.20718 16.1399 2.51579 15.5813 1.95921ZM7.94209 3.98766C7.70985 4.40558 7.49442 4.85442 7.29846 5.3302C6.64873 5.0281 6.03545 4.67143 5.46597 4.2671C5.45249 4.25753 5.4387 4.24872 5.42465 4.24067C6.56414 3.20133 7.93351 2.40952 9.44761 1.9504C8.8855 2.50848 8.37811 3.20305 7.94209 3.98766Z" fill="white" fill-opacity="0.4"/>
</svg>
