<svg width="24" height="24" viewBox="0 0 24 24" fill="none" xmlns="http://www.w3.org/2000/svg">
<path fill-rule="evenodd" clip-rule="evenodd" d="M16.6498 2.34743C16.8333 2.02002 17.2475 1.90338 17.5749 2.0869C19.1373 2.96268 20.2523 4.42956 20.2523 6.17485C20.2523 7.92015 19.1373 9.38702 17.5749 10.2628C17.2475 10.4463 16.8333 10.3297 16.6498 10.0023C16.4663 9.67487 16.5829 9.26067 16.9103 9.07715C18.1756 8.36794 18.8931 7.29386 18.8931 6.17485C18.8931 5.05585 18.1756 3.98177 16.9103 3.27256C16.5829 3.08903 16.4663 2.67484 16.6498 2.34743ZM10.8349 3.35934C9.27993 3.35934 8.01938 4.61989 8.01938 6.17485C8.01938 7.72982 9.27993 8.99037 10.8349 8.99037C12.3899 8.99037 13.6504 7.72982 13.6504 6.17485C13.6504 4.61989 12.3899 3.35934 10.8349 3.35934ZM6.66017 6.17485C6.66017 3.86921 8.52926 2.00012 10.8349 2.00012C13.1405 2.00012 15.0096 3.86921 15.0096 6.17485C15.0096 8.48049 13.1405 10.3496 10.8349 10.3496C8.52926 10.3496 6.66017 8.48049 6.66017 6.17485ZM18.3269 12.9927C18.583 12.7183 19.0131 12.7034 19.2875 12.9595L21.784 15.2896C21.9217 15.4181 21.9999 15.5981 21.9999 15.7864C21.9999 15.9748 21.9217 16.1547 21.784 16.2833L19.2875 18.6134C19.0131 18.8695 18.583 18.8546 18.3269 18.5802C18.0708 18.3058 18.0857 17.8758 18.36 17.6197L19.5961 16.4661H14.9125C14.5372 16.4661 14.2329 16.1618 14.2329 15.7864C14.2329 15.4111 14.5372 15.1068 14.9125 15.1068H19.5961L18.36 13.9532C18.0857 13.6971 18.0708 13.267 18.3269 12.9927ZM2.00039 17.8248C2.00065 15.5193 3.86967 13.6505 6.17513 13.6505H11.9999C12.3753 13.6505 12.6795 13.9548 12.6795 14.3301C12.6795 14.7055 12.3753 15.0098 11.9999 15.0098H6.17513C4.62028 15.0098 3.35978 16.2701 3.35961 17.825L3.35922 21.3205C3.35917 21.6958 3.05487 22 2.67953 22C2.30419 22 1.99996 21.6957 2 21.3203L2.00039 17.8248Z" fill="white" fill-opacity="0.32"/>
</svg>
