<svg width="16" height="16" viewBox="0 0 16 16" fill="none" xmlns="http://www.w3.org/2000/svg">
<path fill-rule="evenodd" clip-rule="evenodd" d="M1.3335 7.99968C1.3335 4.32371 4.3242 1.33301 8.00016 1.33301C11.6761 1.33301 14.6668 4.32371 14.6668 7.99968C14.6668 11.6756 11.6761 14.6663 8.00016 14.6663C4.3242 14.6663 1.3335 11.6756 1.3335 7.99968ZM11.0938 4.76833C11.257 4.75532 11.4189 4.80709 11.5443 4.91245C11.6698 5.01781 11.7487 5.1683 11.7641 5.33139C11.7794 5.49448 11.73 5.65706 11.6265 5.784L11.6256 5.78512L7.22791 11.0204C7.17046 11.0888 7.09896 11.1441 7.01828 11.1825C6.9376 11.2209 6.84961 11.2415 6.76026 11.2429L6.75868 11.2429L6.74984 11.2429C6.66245 11.2429 6.576 11.2245 6.49617 11.1889C6.41636 11.1533 6.34491 11.1014 6.28647 11.0364L4.4025 8.9431C4.34589 8.88283 4.30183 8.81189 4.2729 8.73442C4.24382 8.65658 4.2306 8.5737 4.234 8.49067C4.23741 8.40764 4.25738 8.32613 4.29274 8.25093C4.3281 8.17572 4.37814 8.10835 4.43991 8.05276C4.50168 7.99717 4.57394 7.95449 4.65244 7.92723C4.73095 7.89996 4.8141 7.88867 4.89703 7.894C4.97996 7.89933 5.06099 7.92119 5.13535 7.95829C5.20935 7.9952 5.27526 8.04647 5.32926 8.10909L6.7335 9.6693L10.6708 4.98308L10.6717 4.98199C10.7788 4.85809 10.9305 4.78134 11.0938 4.76833Z" fill="#ffffff"/>
</svg>
