<svg width="24" height="24" viewBox="0 0 24 24" fill="none" xmlns="http://www.w3.org/2000/svg">
<path d="M6.35897 1C3.39929 1 1 3.39929 1 6.35897C1 6.82629 1.37884 7.20513 1.84615 7.20513C2.31347 7.20513 2.69231 6.82629 2.69231 6.35897C2.69231 4.33393 4.33393 2.69231 6.35897 2.69231C6.82629 2.69231 7.20513 2.31347 7.20513 1.84615C7.20513 1.37884 6.82629 1 6.35897 1Z" fill="#1F78FF"/>
<path d="M16.5128 1C16.0455 1 15.6667 1.37884 15.6667 1.84615C15.6667 2.31347 16.0455 2.69231 16.5128 2.69231C19.3469 2.69231 21.3077 4.50037 21.3077 6.35897C21.3077 6.82629 21.6865 7.20513 22.1538 7.20513C22.6212 7.20513 23 6.82629 23 6.35897C23 3.23285 19.9096 1 16.5128 1Z" fill="#1F78FF"/>
<path d="M2.69231 16.5128C2.69231 16.0455 2.31347 15.6667 1.84615 15.6667C1.37884 15.6667 1 16.0455 1 16.5128C1 19.9096 3.23285 23 6.35897 23C6.82629 23 7.20513 22.6212 7.20513 22.1538C7.20513 21.6865 6.82629 21.3077 6.35897 21.3077C4.50037 21.3077 2.69231 19.3469 2.69231 16.5128Z" fill="#1F78FF"/>
<path d="M23 16.5128C23 16.0455 22.6212 15.6667 22.1538 15.6667C21.6865 15.6667 21.3077 16.0455 21.3077 16.5128C21.3077 19.1609 19.1609 21.3077 16.5128 21.3077C16.0455 21.3077 15.6667 21.6865 15.6667 22.1538C15.6667 22.6212 16.0455 23 16.5128 23C20.0956 23 23 20.0956 23 16.5128Z" fill="#1F78FF"/>
<path fill-rule="evenodd" clip-rule="evenodd" d="M8.85061 8.68175C8.85061 6.93829 10.254 5.51282 12.0002 5.51282C13.7463 5.51282 15.1498 6.93828 15.1498 8.68175C15.1498 10.4253 13.7463 11.8506 12.0002 11.8506C10.2541 11.8506 8.85061 10.4253 8.85061 8.68175ZM12.0002 7.20513C11.202 7.20513 10.5429 7.85954 10.5429 8.68175C10.5429 9.50395 11.202 10.1583 12.0002 10.1583C12.7984 10.1583 13.4575 9.50393 13.4575 8.68175C13.4575 7.85956 12.7984 7.20513 12.0002 7.20513Z" fill="#1F78FF"/>
<path fill-rule="evenodd" clip-rule="evenodd" d="M9.80287 13.1557C11.2584 12.9215 12.7416 12.9215 14.1971 13.1557C15.6989 13.3974 16.7949 14.7008 16.7949 16.2205V16.4661C16.7949 17.5757 15.901 18.4872 14.7836 18.4872H9.21637C8.09893 18.4872 7.20513 17.5757 7.20513 16.4661V16.2205C7.20513 14.7008 8.30111 13.3974 9.80287 13.1557ZM13.9283 14.8265C12.6508 14.6209 11.3492 14.6209 10.0717 14.8265C9.4004 14.9345 8.89744 15.5213 8.89744 16.2205V16.4661C8.89744 16.6545 9.04689 16.7949 9.21637 16.7949H14.7836C14.9531 16.7949 15.1026 16.6544 15.1026 16.4661V16.2205C15.1026 15.5213 14.5996 14.9345 13.9283 14.8265Z" fill="#1F78FF"/>
</svg>
