<svg width="343" height="116" viewBox="0 0 343 116" fill="none" xmlns="http://www.w3.org/2000/svg">
<g clip-path="url(#clip0_15631_65534)">
<rect width="343" height="116" rx="12" fill="url(#paint0_diamond_15631_65534)"/>
<g clip-path="url(#clip1_15631_65534)">
<path opacity="0.1" d="M144.089 190.502C179.341 234.063 273.048 216.951 353.398 152.286C433.743 87.6103 470.301 -0.124276 435.049 -43.6857C399.797 -87.2471 306.089 -70.1348 225.74 -5.46951C145.395 59.2062 108.826 146.945 144.078 190.507L144.089 190.502Z" fill="#4E7BEF"/>
<path opacity="0.2" d="M162.3 166.861C192.002 203.557 270.941 189.142 338.623 134.673C406.316 80.1983 437.113 6.28448 407.411 -30.412C377.72 -67.1132 298.771 -52.6937 231.089 1.7759C163.411 56.2559 132.614 130.17 162.3 166.861Z" fill="#4E7BEF"/>
<path opacity="0.2" d="M191.546 142.797C214.111 170.678 274.082 159.72 325.505 118.336C376.927 76.9523 400.327 20.7987 377.772 -7.08706C355.207 -34.9681 295.236 -24.0107 243.813 17.3733C192.395 58.7676 168.996 114.921 191.546 142.797Z" fill="#597CD7"/>
<path opacity="0.3" d="M206.722 123.917C224.766 146.226 272.743 137.462 313.883 104.352C355.022 71.2416 373.739 26.3176 355.685 4.01373C337.63 -18.2902 289.653 -9.52632 248.524 23.5792C207.384 56.6894 188.668 101.613 206.711 123.922L206.722 123.917Z" fill="#4E7BEF"/>
<path opacity="0.5" d="M219.779 106.027C233.196 124.651 271.875 119.755 306.183 95.0959C340.49 70.4369 357.419 35.3548 344.002 16.7309C330.59 -1.88253 291.906 3.00324 257.603 27.6726C223.306 52.3269 206.367 87.4137 219.779 106.027Z" fill="#5797F7"/>
<path fill-rule="evenodd" clip-rule="evenodd" d="M206.598 136.397C206.991 135.327 208.597 134.505 210.195 134.484L210.583 134.479C212.686 134.439 214.816 134.299 216.973 134.07L217.78 133.982L217.986 133.955L218.089 133.942L218.423 133.901C219.837 133.723 221.246 133.509 222.664 133.257C228.327 132.262 234.007 130.733 239.56 128.847C245.12 126.956 250.565 124.709 255.854 122.206C266.439 117.194 276.374 111.191 285.562 104.607C294.738 98.0241 303.18 90.8274 310.741 83.2621C318.252 75.6987 324.709 67.6422 329.633 59.3127C332.088 55.1482 334.144 50.9244 335.692 46.6829C337.232 42.4463 338.251 38.1927 338.525 34.0571C338.792 29.9266 338.319 25.8953 336.742 22.3055C335.19 18.7147 332.478 15.5958 328.651 13.4251C327.683 12.8817 326.683 12.4004 325.621 12.0013C324.554 11.5977 323.418 11.2812 322.234 11.0368C319.857 10.5391 317.264 10.3638 314.583 10.4498C309.214 10.6267 303.554 11.8368 298.074 13.6164C292.588 15.401 287.244 17.7565 282.163 20.4486C277.083 23.1407 272.256 26.1838 267.71 29.455C263.177 32.7257 258.917 36.2294 254.989 39.903C251.05 43.5677 247.507 47.3903 244.471 51.3853C241.443 55.3658 238.903 59.4914 237.089 63.6637C235.292 67.8165 234.204 72.0447 234.358 75.9948C234.442 77.9648 234.844 79.8569 235.656 81.5595C236.468 83.262 237.7 84.7607 239.341 85.934C240.156 86.5162 241.108 87.0462 242.075 87.4209C243.058 87.809 244.154 88.0803 245.317 88.2505C247.644 88.5814 250.257 88.4606 252.919 88.0098C258.27 87.0977 263.703 84.9871 268.689 82.383C273.698 79.7641 278.337 76.6064 282.509 73.1623C284.588 71.4406 286.575 69.6287 288.394 67.7858C290.202 65.934 291.855 64.018 293.307 62.0535C296.178 58.1306 298.32 53.969 298.975 49.978C299.287 47.9971 299.205 46.0739 298.552 44.4166C297.904 42.7639 296.626 41.417 294.833 40.6199C293.133 39.8567 290.786 39.7562 288.282 40.1727C285.773 40.5848 283.159 41.4697 280.673 42.598C278.096 43.772 275.644 45.199 273.356 46.7883L273.357 46.7882C273.721 46.6381 274.085 46.4879 274.452 46.3517C276.086 45.7442 277.826 45.2497 279.667 45.0091C281.494 44.7689 283.474 44.8041 285.192 45.3463C285.612 45.4799 286.026 45.6418 286.397 45.8336C286.751 46.012 287.089 46.2097 287.397 46.4273C288.013 46.8626 288.54 47.367 288.951 47.9087C289.778 49.0061 290.174 50.2421 290.302 51.4745C290.429 52.7164 290.285 53.9642 289.983 55.1899C289.373 57.6465 288.15 60.0192 286.608 62.2777C285.054 64.5367 283.136 66.6881 280.998 68.6747C276.747 72.6234 271.668 76.2154 265.733 78.8987C262.766 80.2239 259.561 81.324 256.159 81.8741C254.469 82.1417 252.724 82.2614 251.011 82.1502C249.306 82.034 247.655 81.672 246.238 81.0383C243.485 79.8052 241.696 77.7752 240.851 75.5396C239.994 73.3044 239.955 70.9013 240.351 68.5423C241.183 63.8037 243.66 59.1744 246.868 54.8539C248.49 52.686 250.319 50.5943 252.312 48.5853C254.318 46.5758 256.439 44.6649 258.709 42.8138C263.235 39.1216 268.271 35.7281 273.815 32.8585C276.585 31.4332 279.49 30.1338 282.511 29.0456C285.537 27.9618 288.689 27.0746 291.923 26.5499C295.145 26.0256 298.474 25.8627 301.597 26.322C303.146 26.5521 304.637 26.9344 305.993 27.4721C307.36 28.0186 308.508 28.6816 309.571 29.4416C311.686 30.962 313.205 32.8854 314.164 34.9713C315.135 37.0567 315.566 39.2991 315.641 41.5648C315.763 46.1161 314.494 50.7639 312.499 55.276C310.492 59.7885 307.732 64.1993 304.471 68.4187C301.202 72.643 297.388 76.7059 293.234 80.5242C289.085 84.3471 284.605 88 279.796 91.4174C274.999 94.8343 269.874 98.0157 264.447 100.862C259.022 103.699 253.283 106.201 247.26 108.124C241.264 110.036 234.923 111.385 228.666 111.559C225.541 111.648 222.454 111.422 219.578 110.803C218.139 110.499 216.759 110.098 215.462 109.6C214.159 109.107 212.954 108.508 211.845 107.866C209.617 106.575 207.708 105.005 206.156 103.256C204.612 101.503 203.415 99.5619 202.552 97.5238C200.822 93.4337 200.365 88.9893 200.704 84.5044C201.043 80.0195 202.193 75.4842 203.861 71.0083C205.536 66.5274 207.744 62.096 210.353 57.7475C215.582 49.0498 222.37 40.7132 230.23 32.8971C238.107 25.1179 246.845 17.7691 256.386 11.0029C265.93 4.25072 276.267 -1.9278 287.344 -7.10406C292.882 -9.68746 298.608 -12.0204 304.503 -13.985C310.386 -15.9491 316.444 -17.5497 322.574 -18.5954C324.101 -18.8566 325.644 -19.0809 327.178 -19.2674L327.563 -19.3106L327.678 -19.3245L327.897 -19.3517L328.339 -19.4018L329.222 -19.4925C331.565 -19.72 333.906 -19.849 336.234 -19.8649C338.037 -19.8791 339.165 -18.9294 338.76 -17.859C338.356 -16.7885 336.752 -15.9759 335.148 -15.9602L334.76 -15.9544C332.654 -15.9284 330.526 -15.7983 328.378 -15.5832L327.572 -15.4955L327.373 -15.4736L327.27 -15.4603L326.931 -15.4236C325.519 -15.2559 324.104 -15.046 322.696 -14.8081C317.027 -13.8414 311.347 -12.3446 305.783 -10.4914C300.211 -8.6332 294.753 -6.40914 289.44 -3.93764C278.816 1.01932 268.841 6.97749 259.6 13.5163C250.37 20.0641 241.863 27.2164 234.234 34.7469C226.656 42.2754 220.122 50.3115 215.127 58.625C212.631 62.777 210.53 67.0073 208.946 71.2408C207.363 75.4744 206.301 79.725 205.987 83.8715C205.674 88.0085 206.11 92.0413 207.632 95.652C209.15 99.2581 211.82 102.397 215.623 104.593C216.576 105.146 217.568 105.632 218.628 106.041C219.695 106.444 220.822 106.775 222.004 107.029C224.366 107.537 226.955 107.731 229.632 107.664C234.988 107.52 240.659 106.343 246.145 104.591C251.643 102.839 257.001 100.506 262.1 97.8413C267.207 95.1716 272.053 92.1558 276.625 88.9071C281.197 85.6583 285.473 82.168 289.44 78.5163C293.412 74.8691 296.983 71.0595 300.066 67.0814C303.142 63.1083 305.719 58.9907 307.568 54.8264C309.402 50.6721 310.534 46.4469 310.425 42.4904C310.366 40.5194 309.992 38.6169 309.192 36.9138C308.4 35.2058 307.19 33.6922 305.551 32.5094C304.736 31.9272 303.799 31.3873 302.834 31.0031C301.853 30.6055 300.764 30.3293 299.601 30.1591C297.284 29.8137 294.667 29.9206 292.01 30.3526C286.66 31.2318 281.213 33.3195 276.208 35.8962C271.178 38.4972 266.507 41.628 262.315 45.0541C260.225 46.7669 258.215 48.5703 256.386 50.4042C254.555 52.2475 252.896 54.1591 251.426 56.1196C248.514 60.03 246.334 64.1931 245.636 68.1812C245.299 70.163 245.361 72.0917 245.994 73.7544C246.622 75.4126 247.886 76.7694 249.664 77.5765C251.349 78.3497 253.691 78.4691 256.193 78.062C258.693 77.6643 261.323 76.7929 263.819 75.6736C266.303 74.5547 268.675 73.2059 270.907 71.7031C270.811 71.7397 270.716 71.7797 270.622 71.8198C270.527 71.8598 270.432 71.8998 270.336 71.9363C268.713 72.5529 266.971 73.0568 265.129 73.3069C263.299 73.5565 261.322 73.5353 259.59 73.003C259.162 72.8744 258.748 72.7124 258.378 72.5207C258.016 72.3473 257.686 72.1446 257.37 71.932C256.746 71.5017 256.213 71.0022 255.796 70.456C254.954 69.3686 254.545 68.1331 254.405 66.9011C254.271 65.6642 254.397 64.4125 254.679 63.1922C255.264 60.7366 256.456 58.3605 257.987 56.093C259.516 53.8349 261.411 51.675 263.541 49.6701C267.758 45.7039 272.806 42.085 278.729 39.3694C281.693 38.0302 284.889 36.9117 288.288 36.3477C289.988 36.0657 291.735 35.9365 293.437 36.0387C295.152 36.1405 296.81 36.4975 298.224 37.1173C300.993 38.3309 302.81 40.3505 303.677 42.5712C304.554 44.8009 304.625 47.198 304.255 49.5561C303.473 54.2927 301.04 58.925 297.87 63.2674C296.274 65.4343 294.46 67.5395 292.49 69.557C290.5 71.5799 288.397 73.4948 286.15 75.3544C281.657 79.0641 276.648 82.4799 271.123 85.3769C268.361 86.8206 265.472 88.1334 262.454 89.2357C259.436 90.3379 256.288 91.2389 253.05 91.7826C249.824 92.3258 246.491 92.5076 243.363 92.0673C241.804 91.8516 240.307 91.4742 238.948 90.946C237.574 90.4044 236.417 89.7559 235.346 89.0009C233.217 87.4904 231.675 85.582 230.682 83.5115C229.691 81.4316 229.233 79.1995 229.132 76.9348C228.966 72.39 230.191 67.7392 232.135 63.2291C234.094 58.709 236.811 54.2953 240.039 50.0585C243.266 45.8216 247.04 41.7463 251.167 37.9055C255.282 34.0653 259.736 30.3899 264.506 26.9506C269.282 23.5157 274.371 20.303 279.784 17.4339C285.19 14.5697 290.917 12.0352 296.917 10.0806C302.901 8.13596 309.237 6.74943 315.507 6.542C318.63 6.43878 321.727 6.6506 324.614 7.24559C326.055 7.54084 327.442 7.93661 328.753 8.42443C330.064 8.91225 331.279 9.49759 332.402 10.1287C334.652 11.4048 336.578 12.956 338.15 14.6992C339.722 16.4425 340.933 18.3731 341.824 20.4008C343.608 24.47 344.11 28.9079 343.824 33.3814C343.523 37.8648 342.431 42.3932 340.798 46.8771C339.166 51.361 337.006 55.7998 334.433 60.1564C329.288 68.8695 322.575 77.236 314.797 85.077C306.987 92.8911 298.309 100.28 288.833 107.09C279.354 113.887 269.058 120.111 258.011 125.347C252.492 127.957 246.777 130.323 240.894 132.32C235.023 134.316 228.969 135.954 222.845 137.028C221.312 137.294 219.784 137.532 218.242 137.723L217.85 137.771L217.735 137.785L217.516 137.812L217.074 137.862L216.197 137.958C213.849 138.204 211.506 138.342 209.181 138.372C207.376 138.396 206.234 137.456 206.626 136.386L206.598 136.397ZM263.056 66.1835C263.324 66.2434 263.681 66.2669 264.109 66.2268C264.964 66.1465 266.057 65.8085 267.108 65.3222C267.028 65.2878 266.948 65.2534 266.863 65.2145C266.083 65.2356 265.355 65.1094 264.753 64.8329C263.923 64.4622 263.348 63.8379 263.106 63.0927C262.982 62.7178 262.939 62.3211 262.962 61.903C262.977 61.6915 262.994 61.5596 263.024 61.3944C263.052 61.2386 263.093 61.0823 263.134 60.926C263.305 60.3194 263.579 59.7556 263.905 59.2132C264.064 58.9445 264.247 58.6842 264.44 58.433L264.511 58.3364L264.546 58.2882C264.618 58.1916 264.79 57.9787 264.922 57.8329C265.205 57.5125 265.499 57.201 265.813 56.9075C266.413 56.3403 267.072 55.7896 267.804 55.2783L267.87 55.2335C268.796 54.2364 269.814 53.3295 270.936 52.4654C271.446 52.0799 271.984 51.7073 272.536 51.3576C272.525 51.3651 272.513 51.3714 272.501 51.3778C272.488 51.3841 272.476 51.3904 272.465 51.3979C270.176 52.6826 268.072 54.26 266.248 55.9859C264.465 57.6679 263.028 59.5334 262.217 61.3696C261.815 62.2853 261.585 63.1896 261.586 63.977C261.593 64.7689 261.85 65.415 262.305 65.791C262.421 65.8896 262.546 65.9738 262.68 66.0435C262.804 66.1043 262.908 66.1471 263.05 66.179L263.056 66.1835ZM278.442 62.2404C280.215 60.5494 281.633 58.68 282.426 56.8398C282.816 55.9246 283.041 55.0158 283.027 54.2289C283.008 53.4375 282.743 52.7963 282.281 52.4253C282.165 52.3267 282.033 52.2475 281.898 52.1778C281.774 52.117 281.671 52.0742 281.533 52.0467C281.265 51.9869 280.908 51.9634 280.478 52.013C279.629 52.0977 278.541 52.4402 277.495 52.931C277.582 52.9603 277.667 52.9991 277.752 53.0379L277.753 53.0381C278.52 53.0176 279.25 53.1343 279.846 53.4063C280.684 53.772 281.266 54.3914 281.516 55.1317C281.647 55.5015 281.696 55.9027 281.674 56.3113C281.664 56.5274 281.648 56.6592 281.617 56.8245C281.589 56.9803 281.554 57.141 281.515 57.2878C281.349 57.899 281.082 58.4578 280.757 59.0002C280.597 59.2689 280.415 59.5291 280.227 59.7849L280.156 59.8814L280.12 59.9297C280.049 60.0262 279.877 60.2392 279.758 60.3845C279.487 60.7044 279.193 61.0159 278.884 61.3139C278.289 61.8855 277.63 62.4362 276.904 62.9521L276.743 63.0615C275.809 64.0635 274.788 64.9565 273.655 65.8117C272.877 66.3952 272.038 66.9389 271.163 67.4512C271.543 67.2582 271.918 67.0607 272.289 66.8494C274.568 65.5557 276.656 63.9649 278.462 62.235L278.442 62.2404ZM195.309 134.766C196.07 133.752 197.814 133.238 199.255 133.534L199.615 133.604C200.466 133.768 201.322 133.912 202.201 134.033C203.701 134.232 204.613 135.199 204.177 136.266C203.747 137.338 201.947 138.106 200.221 137.883L199.809 137.824C198.828 137.685 197.852 137.516 196.901 137.324C195.233 136.981 194.553 135.784 195.307 134.775L195.309 134.766ZM189.446 135.084C190.679 135.584 192.381 135.124 193.19 134.117L193.185 134.113C193.999 133.111 193.75 132 192.69 131.568C191.634 131.141 190.039 131.489 189.051 132.423C188.072 133.352 188.213 134.584 189.446 135.084Z" fill="url(#paint1_linear_15631_65534)"/>
<path opacity="0.05" d="M261.258 69.7164C266.104 72.168 274.935 69.5074 280.989 63.7695C287.057 58.031 288.034 51.3924 283.201 48.9402C278.355 46.4886 269.524 49.1492 263.47 54.8871C257.415 60.6251 256.425 67.2642 261.258 69.7164Z" fill="#35DBF1"/>
<path opacity="0.1" d="M261.414 69.5701C266.182 71.9908 274.889 69.3642 280.866 63.712C286.838 58.0551 287.807 51.5141 283.044 49.0981C278.281 46.6821 269.568 49.304 263.597 54.9609C257.625 60.6178 256.656 67.1588 261.419 69.5748L261.414 69.5701Z" fill="#35DBF1"/>
<path opacity="0.14" d="M261.577 69.4179C266.275 71.8024 274.856 69.2196 280.737 63.649C286.619 58.0783 287.579 51.6349 282.88 49.2504C278.182 46.866 269.599 49.4585 263.712 55.0245C257.83 60.5952 256.871 67.0386 261.569 69.423L261.577 69.4179Z" fill="#35DBF1"/>
<path opacity="0.19" d="M261.733 69.2697C266.361 71.6179 274.818 69.0693 280.609 63.5848C286.408 58.0952 287.354 51.7447 282.717 49.4016C278.089 47.0534 269.632 49.602 263.841 55.0865C258.042 60.5761 257.096 66.9266 261.733 69.2697Z" fill="#35DBF1"/>
<path opacity="0.24" d="M261.896 69.1179C266.455 71.43 274.779 68.9206 280.488 63.5172C286.196 58.1138 287.128 51.8563 282.569 49.5442C278.01 47.2321 269.686 49.7416 263.977 55.145C258.268 60.5484 257.336 66.8059 261.903 69.1128L261.896 69.1179Z" fill="#35DBF1"/>
<path opacity="0.29" d="M262.051 68.9713C266.54 71.2472 274.739 68.7815 280.359 63.4545C285.985 58.1322 286.895 51.9728 282.406 49.6969C277.917 47.421 269.724 49.8913 264.098 55.2136C258.48 60.5308 257.562 66.6954 262.046 68.9666L262.051 68.9713Z" fill="#35DBF1"/>
<path opacity="0.33" d="M262.209 68.813C266.629 71.0527 274.695 68.6263 280.225 63.3856C285.761 58.1494 286.663 52.0877 282.243 49.8479C277.824 47.6082 269.75 50.0398 264.227 55.2754C258.697 60.5162 257.795 66.5779 262.209 68.813Z" fill="#35DBF1"/>
<path opacity="0.38" d="M262.364 68.6663C266.714 70.8699 274.656 68.4775 280.096 63.3229C285.549 58.1679 286.429 52.2042 282.079 50.0007C277.73 47.7972 269.787 50.1895 264.347 55.3441C258.908 60.4986 258.014 66.4628 262.364 68.6663Z" fill="#35DBF1"/>
<path opacity="0.43" d="M262.528 68.514C266.807 70.6814 274.618 68.3282 279.975 63.2547C285.332 58.1812 286.204 52.3152 281.924 50.1479C277.644 47.9805 269.834 50.3337 264.477 55.4072C259.119 60.4807 258.248 66.3467 262.528 68.514Z" fill="#35DBF1"/>
<path opacity="0.48" d="M262.684 68.3671C266.894 70.4983 274.578 68.189 279.839 63.197C285.106 58.2098 285.964 52.4367 281.761 50.3003C277.551 48.1692 269.873 50.4831 264.606 55.4704C259.339 60.4577 258.481 66.2308 262.684 68.3671Z" fill="#35DBF1"/>
<path opacity="0.52" d="M262.847 68.2153C266.987 70.3103 274.539 68.0402 279.723 63.134C284.908 58.2277 285.751 52.5476 281.611 50.4527C277.471 48.3577 269.911 50.633 264.74 55.5387C259.556 60.4449 258.712 66.125 262.852 68.22L262.847 68.2153Z" fill="#35DBF1"/>
<path opacity="0.57" d="M263.01 68.0623C267.08 70.1211 274.508 67.8851 279.602 63.0651C284.696 58.2451 285.531 52.6626 281.455 50.5991C277.385 48.5403 269.956 50.7764 264.863 55.5964C259.769 60.4164 258.939 66.0035 263.01 68.0623Z" fill="#35DBF1"/>
<path opacity="0.62" d="M263.165 67.9161C267.166 69.9387 274.462 67.7418 279.466 63.008C284.477 58.2691 285.29 52.7847 281.284 50.7574C277.284 48.7348 269.987 50.9317 264.984 55.6655C259.978 60.4091 259.159 65.8888 263.16 67.9114L263.165 67.9161Z" fill="#35DBF1"/>
<path opacity="0.67" d="M263.328 67.7635C267.251 69.7551 274.429 67.5969 279.344 62.9395C284.265 58.2868 285.065 52.8954 281.134 50.909C277.203 48.9225 270.039 51.0802 265.118 55.7329C260.202 60.3903 259.397 65.7771 263.328 67.7635Z" fill="#35DBF1"/>
<path opacity="0.71" d="M263.478 67.6113C267.332 69.5667 274.377 67.4477 279.21 62.8714C284.043 58.2951 284.826 53.0065 280.973 51.0511C277.119 49.0957 270.066 51.2198 265.241 55.7909C260.408 60.3672 259.625 65.6559 263.478 67.6113Z" fill="#35DBF1"/>
<path opacity="0.76" d="M263.642 67.459C267.431 69.3829 274.347 67.2933 279.09 62.8032C283.832 58.3131 284.601 53.1175 280.818 51.1982C277.034 49.279 270.113 51.3639 265.37 55.854C260.628 60.3441 259.858 65.5398 263.642 67.459Z" fill="#35DBF1"/>
<path opacity="0.81" d="M263.798 67.3115C267.517 69.1992 274.307 67.1534 278.953 62.7449C283.606 58.341 284.366 53.243 280.647 51.3553C276.933 49.4722 270.143 51.518 265.491 55.9218C260.839 60.3257 260.084 65.4284 263.798 67.3115Z" fill="#35DBF1"/>
<path opacity="0.86" d="M263.96 67.1604C267.61 69.0119 274.268 67.0054 278.832 62.6779C283.401 58.3551 284.14 53.3552 280.491 51.5036C276.847 49.6568 270.189 51.6633 265.619 55.9861C261.05 60.3089 260.303 65.314 263.96 67.1604Z" fill="#35DBF1"/>
<path opacity="0.9" d="M264.116 67.0126C267.696 68.8279 274.222 66.8606 278.704 62.6142C283.183 58.3776 283.915 53.4655 280.336 51.6501C276.762 49.8394 270.222 51.8073 265.749 56.0485C261.269 60.2851 260.537 65.1972 264.116 67.0126Z" fill="#35DBF1"/>
<path opacity="0.95" d="M264.279 66.8605C267.789 68.6396 274.191 66.7064 278.58 62.556C282.971 58.3958 283.687 53.5865 280.178 51.8073C276.673 50.0328 270.266 51.9614 265.882 56.1165C261.491 60.2767 260.775 65.086 264.279 66.8605Z" fill="#35DBF1"/>
<path d="M264.442 66.7084C267.882 68.4514 274.158 66.5619 278.459 62.4879C282.76 58.414 283.468 53.7023 280.028 51.9593C276.593 50.221 270.317 52.1104 266.011 56.1797C261.71 60.2537 261.008 64.9701 264.442 66.7084Z" fill="#35DBF1"/>
<path opacity="0.05" d="M264.921 65.7268C268.056 67.3128 273.769 65.5916 277.686 61.8798C281.611 58.1676 282.243 53.8731 279.116 52.2868C275.982 50.7008 270.269 52.422 266.352 56.1338C262.436 59.8457 261.795 64.1405 264.921 65.7268Z" fill="#75EEFF"/>
<path opacity="0.1" d="M265.022 65.6321C268.107 67.198 273.739 65.4989 277.606 61.8425C281.469 58.1831 282.095 53.9517 279.014 52.3889C275.933 50.826 270.297 52.5221 266.434 56.1815C262.571 59.8409 261.944 64.0723 265.025 65.6351L265.022 65.6321Z" fill="#75EEFF"/>
<path opacity="0.14" d="M265.128 65.5337C268.167 67.0761 273.718 65.4054 277.522 61.8017C281.327 58.1981 281.948 54.0299 278.909 52.4874C275.869 50.9449 270.317 52.622 266.509 56.2226C262.704 59.8263 262.083 63.9945 265.123 65.537L265.128 65.5337Z" fill="#75EEFF"/>
<path opacity="0.19" d="M265.228 65.4376C268.222 66.9566 273.693 65.3079 277.439 61.76C281.19 58.2088 281.802 54.1008 278.803 52.585C275.809 51.0659 270.338 52.7147 266.592 56.2625C262.841 59.8137 262.229 63.9218 265.228 65.4376Z" fill="#75EEFF"/>
<path opacity="0.24" d="M265.333 65.3395C268.283 66.8351 273.668 65.2118 277.361 61.7164C281.053 58.2209 281.656 54.173 278.707 52.6773C275.758 51.1816 270.373 52.805 266.68 56.3004C262.987 59.7959 262.384 63.8438 265.338 65.3362L265.333 65.3395Z" fill="#75EEFF"/>
<path opacity="0.29" d="M265.435 65.2446C268.339 66.7169 273.642 65.1219 277.278 61.6759C280.917 58.2329 281.506 54.2484 278.602 52.7762C275.698 51.3039 270.398 52.9019 266.759 56.3449C263.124 59.7846 262.531 63.7724 265.431 65.2416L265.435 65.2446Z" fill="#75EEFF"/>
<path opacity="0.33" d="M265.537 65.1423C268.396 66.5911 273.614 65.0215 277.191 61.6313C280.772 58.2441 281.355 54.3227 278.497 52.8739C275.638 51.425 270.415 52.998 266.842 56.3849C263.265 59.7751 262.681 63.6964 265.537 65.1423Z" fill="#75EEFF"/>
<path opacity="0.38" d="M265.637 65.0475C268.451 66.473 273.588 64.9253 277.107 61.5909C280.635 58.2561 281.204 54.3983 278.391 52.9728C275.577 51.5473 270.439 53.095 266.92 56.4294C263.401 59.7639 262.823 63.622 265.637 65.0475Z" fill="#75EEFF"/>
<path opacity="0.43" d="M265.742 64.9488C268.511 66.3509 273.563 64.8286 277.029 61.5466C280.494 58.2646 281.058 54.4699 278.29 53.0678C275.521 51.6658 270.468 53.188 267.003 56.4701C263.537 59.7521 262.974 63.5468 265.742 64.9488Z" fill="#75EEFF"/>
<path opacity="0.48" d="M265.843 64.8537C268.566 66.2324 273.537 64.7385 276.941 61.5093C280.348 58.283 280.902 54.5484 278.184 53.1664C275.461 51.7878 270.493 53.2847 267.086 56.5109C263.679 59.7372 263.124 63.4718 265.843 64.8537Z" fill="#75EEFF"/>
<path opacity="0.52" d="M265.948 64.7555C268.627 66.1108 273.512 64.6422 276.866 61.4684C280.219 58.2946 280.765 54.6202 278.087 53.265C275.409 51.9097 270.518 53.3816 267.173 56.5551C263.819 59.7289 263.274 63.4033 265.952 64.7586L265.948 64.7555Z" fill="#75EEFF"/>
<path opacity="0.57" d="M266.054 64.6567C268.687 65.9885 273.492 64.542 276.787 61.424C280.082 58.306 280.623 54.6947 277.986 53.3598C275.353 52.028 270.548 53.4745 267.252 56.5925C263.957 59.7106 263.421 63.3249 266.054 64.6567Z" fill="#75EEFF"/>
<path opacity="0.62" d="M266.155 64.562C268.743 65.8705 273.463 64.4493 276.7 61.387C279.941 58.3214 280.468 54.7736 277.876 53.4622C275.288 52.1538 270.568 53.5749 267.331 56.6372C264.093 59.7058 263.563 63.2506 266.151 64.559L266.155 64.562Z" fill="#75EEFF"/>
<path opacity="0.67" d="M266.261 64.4635C268.798 65.7519 273.442 64.3557 276.621 61.3429C279.805 58.3331 280.322 54.8454 277.779 53.5604C275.236 52.2754 270.602 53.6712 267.418 56.681C264.238 59.6938 263.718 63.1785 266.261 64.4635Z" fill="#75EEFF"/>
<path opacity="0.71" d="M266.357 64.3649C268.85 65.6299 273.408 64.2591 276.534 61.2987C279.661 58.3383 280.167 54.9172 277.675 53.6522C275.182 52.3873 270.619 53.7613 267.498 56.7184C264.371 59.6788 263.865 63.1 266.357 64.3649Z" fill="#75EEFF"/>
<path opacity="0.76" d="M266.463 64.2663C268.914 65.5108 273.388 64.159 276.456 61.2544C279.524 58.3498 280.021 54.9888 277.574 53.7472C275.126 52.5057 270.649 53.8544 267.581 56.759C264.513 59.6637 264.015 63.0247 266.463 64.2663Z" fill="#75EEFF"/>
<path opacity="0.81" d="M266.564 64.1709C268.97 65.392 273.362 64.0687 276.368 61.2168C279.378 58.3679 279.87 55.0701 277.464 53.8489C275.062 52.6308 270.669 53.9542 267.66 56.803C264.65 59.6519 264.162 62.9527 266.564 64.1709Z" fill="#75EEFF"/>
<path opacity="0.86" d="M266.669 64.0733C269.03 65.271 273.337 63.973 276.29 61.1736C279.246 58.3771 279.724 55.1427 277.363 53.945C275.006 52.7503 270.699 54.0483 267.743 56.8447C264.787 59.6411 264.304 62.8788 266.669 64.0733Z" fill="#75EEFF"/>
<path opacity="0.9" d="M266.77 63.9776C269.086 65.1519 273.307 63.8793 276.206 61.1323C279.104 58.3917 279.578 55.214 277.262 54.0397C274.95 52.8684 270.72 54.1414 267.826 56.885C264.928 59.6257 264.454 62.8033 266.77 63.9776Z" fill="#75EEFF"/>
<path opacity="0.95" d="M266.876 63.8793C269.146 65.0302 273.287 63.7796 276.127 61.0947C278.967 58.4035 279.431 55.2924 277.16 54.1415C274.893 52.9935 270.748 54.2412 267.913 56.9291C265.072 59.6203 264.609 62.7314 266.876 63.8793Z" fill="#75EEFF"/>
<path d="M266.981 63.7809C269.207 64.9084 273.266 63.6862 276.048 61.0507C278.831 58.4153 279.289 55.3673 277.063 54.2398C274.841 53.1153 270.782 54.3375 267.996 56.97C265.214 59.6054 264.759 62.6564 266.981 63.7809Z" fill="#75EEFF"/>
<path opacity="0.05" d="M268.491 62.4827C269.866 63.1784 272.373 62.4234 274.091 60.795C275.813 59.1665 276.09 57.2825 274.718 56.5866C273.343 55.8909 270.837 56.6459 269.119 58.2743C267.401 59.9027 267.12 61.7868 268.491 62.4827Z" fill="#D2FAFF"/>
<path opacity="0.1" d="M268.535 62.4411C269.888 63.128 272.359 62.3826 274.055 60.7786C275.75 59.1732 276.025 57.3169 274.673 56.6313C273.322 55.9457 270.849 56.6898 269.154 58.2951C267.46 59.9005 267.185 61.7567 268.536 62.4424L268.535 62.4411Z" fill="#D2FAFF"/>
<path opacity="0.14" d="M268.581 62.3979C269.915 63.0745 272.35 62.3416 274.019 60.7607C275.688 59.1798 275.961 57.3512 274.627 56.6746C273.294 55.9979 270.858 56.7336 269.187 58.3132C267.518 59.8941 267.246 61.7226 268.579 62.3993L268.581 62.3979Z" fill="#D2FAFF"/>
<path opacity="0.19" d="M268.626 62.3559C269.939 63.0223 272.339 62.299 273.983 60.7426C275.628 59.1847 275.897 57.3825 274.581 56.7175C273.267 56.0511 270.868 56.7744 269.224 58.3308C267.578 59.8887 267.31 61.6909 268.626 62.3559Z" fill="#D2FAFF"/>
<path opacity="0.24" d="M268.671 62.3128C269.965 62.969 272.328 62.2568 273.948 60.7234C275.568 59.19 275.832 57.4142 274.538 56.758C273.245 56.1019 270.882 56.814 269.262 58.3475C267.642 59.8809 267.378 61.6567 268.674 62.3114L268.671 62.3128Z" fill="#D2FAFF"/>
<path opacity="0.29" d="M268.716 62.2712C269.99 62.9171 272.316 62.2174 273.911 60.7056C275.508 59.1952 275.766 57.4472 274.492 56.8014C273.218 56.1555 270.893 56.8565 269.297 58.3669C267.702 59.8759 267.442 61.6253 268.714 62.2699L268.716 62.2712Z" fill="#D2FAFF"/>
<path opacity="0.33" d="M268.761 62.2263C270.015 62.8619 272.305 62.1733 273.874 60.686C275.445 59.2001 275.701 57.4798 274.447 56.8442C273.192 56.2086 270.901 56.8987 269.334 58.3845C267.764 59.8717 267.509 61.592 268.761 62.2263Z" fill="#D2FAFF"/>
<path opacity="0.38" d="M268.805 62.1846C270.039 62.81 272.293 62.1311 273.837 60.6683C275.384 59.2053 275.634 57.5129 274.399 56.8876C273.165 56.2622 270.911 56.9411 269.367 58.4039C267.824 59.8668 267.57 61.5593 268.805 62.1846Z" fill="#D2FAFF"/>
<path opacity="0.43" d="M268.851 62.1415C270.065 62.7566 272.282 62.0888 273.802 60.649C275.323 59.2092 275.57 57.5445 274.355 56.9294C273.141 56.3143 270.924 56.9821 269.404 58.4219C267.884 59.8617 267.636 61.5264 268.851 62.1415Z" fill="#D2FAFF"/>
<path opacity="0.48" d="M268.896 62.0997C270.09 62.7045 272.271 62.0492 273.764 60.6325C275.259 59.2172 275.502 57.5788 274.31 56.9726C273.115 56.3678 270.936 57.0244 269.441 58.4398C267.947 59.8551 267.703 61.4934 268.896 62.0997Z" fill="#D2FAFF"/>
<path opacity="0.52" d="M268.941 62.0566C270.116 62.6512 272.26 62.0069 273.731 60.6146C275.202 59.2223 275.441 57.6103 274.267 57.0158C273.092 56.4213 270.946 57.067 269.479 58.4591C268.007 59.8515 267.768 61.4634 268.943 62.058L268.941 62.0566Z" fill="#D2FAFF"/>
<path opacity="0.57" d="M268.988 62.0133C270.143 62.5976 272.251 61.963 273.696 60.5952C275.142 59.2273 275.379 57.6431 274.222 57.0575C273.067 56.4732 270.959 57.1078 269.514 58.4756C268.068 59.8435 267.833 61.4291 268.988 62.0133Z" fill="#D2FAFF"/>
<path opacity="0.62" d="M269.032 61.9717C270.167 62.5457 272.238 61.9223 273.658 60.5789C275.08 59.234 275.311 57.6776 274.174 57.1023C273.039 56.5283 270.968 57.1517 269.548 58.4951C268.128 59.8413 267.895 61.3964 269.031 61.9704L269.032 61.9717Z" fill="#D2FAFF"/>
<path opacity="0.67" d="M269.079 61.9284C270.192 62.4936 272.229 61.8811 273.624 60.5594C275.021 59.239 275.247 57.709 274.132 57.1453C273.016 56.5815 270.983 57.1939 269.587 58.5143C268.192 59.836 267.963 61.3647 269.079 61.9284Z" fill="#D2FAFF"/>
<path opacity="0.71" d="M269.121 61.8853C270.215 62.4402 272.214 61.8389 273.586 60.5402C274.957 59.2415 275.179 57.7406 274.086 57.1857C272.992 56.6308 270.991 57.2336 269.621 58.5308C268.25 59.8295 268.028 61.3304 269.121 61.8853Z" fill="#D2FAFF"/>
<path opacity="0.76" d="M269.167 61.8422C270.243 62.3882 272.205 61.7951 273.551 60.5209C274.897 59.2467 275.115 57.7722 274.042 57.2275C272.968 56.6829 271.004 57.2746 269.658 58.5488C268.312 59.823 268.094 61.2975 269.167 61.8422Z" fill="#D2FAFF"/>
<path opacity="0.81" d="M269.212 61.8002C270.267 62.3359 272.194 61.7553 273.513 60.5043C274.833 59.2545 275.049 57.8077 273.994 57.272C272.94 56.7376 271.013 57.3182 269.693 58.568C268.372 59.8177 268.158 61.2658 269.212 61.8002Z" fill="#D2FAFF"/>
<path opacity="0.86" d="M269.258 61.7573C270.294 62.2828 272.183 61.7133 273.479 60.4853C274.775 59.2585 274.985 57.8396 273.949 57.3141C272.915 56.79 271.026 57.3594 269.729 58.5862C268.432 59.813 268.22 61.2334 269.258 61.7573Z" fill="#D2FAFF"/>
<path opacity="0.9" d="M269.302 61.7155C270.318 62.2307 272.17 61.6723 273.442 60.4673C274.713 59.265 274.921 57.871 273.905 57.3558C272.891 56.8419 271.035 57.4004 269.765 58.604C268.494 59.8063 268.286 61.2003 269.302 61.7155Z" fill="#D2FAFF"/>
<path opacity="0.95" d="M269.348 61.6722C270.344 62.1771 272.161 61.6285 273.406 60.4506C274.652 59.27 274.856 57.9052 273.86 57.4003C272.865 56.8967 271.047 57.444 269.803 58.6232C268.557 59.8038 268.353 61.1686 269.348 61.6722Z" fill="#D2FAFF"/>
<path d="M269.394 61.6291C270.371 62.1237 272.152 61.5875 273.372 60.4313C274.593 59.2752 274.794 57.9381 273.817 57.4434C272.843 56.9501 271.062 57.4863 269.84 58.6411C268.619 59.7973 268.42 61.1357 269.394 61.6291Z" fill="#D2FAFF"/>
</g>
</g>
<rect x="0.5" y="0.5" width="342" height="115" rx="11.5" stroke="#999EC7" stroke-opacity="0.16"/>
<defs>
<radialGradient id="paint0_diamond_15631_65534" cx="0" cy="0" r="1" gradientUnits="userSpaceOnUse" gradientTransform="translate(197 53.5) rotate(46.3697) scale(251.448 743.507)">
<stop stop-color="#0F3C72"/>
<stop offset="0.25" stop-color="#290A5C"/>
<stop offset="0.473958" stop-color="#010527"/>
<stop offset="1"/>
</radialGradient>
<linearGradient id="paint1_linear_15631_65534" x1="229.805" y1="28.9463" x2="284.684" y2="109.993" gradientUnits="userSpaceOnUse">
<stop stop-color="#325ED1"/>
<stop offset="1" stop-color="#00F0FF"/>
</linearGradient>
<clipPath id="clip0_15631_65534">
<rect width="343" height="116" rx="12" fill="white"/>
</clipPath>
<clipPath id="clip1_15631_65534">
<rect width="215" height="333" fill="white" transform="translate(128 -108)"/>
</clipPath>
</defs>
</svg>
