<svg width="32" height="32" viewBox="0 0 32 32" fill="none" xmlns="http://www.w3.org/2000/svg">
<path fill-rule="evenodd" clip-rule="evenodd" d="M22.2331 7.10092C24.113 7.87995 25.1635 8.98489 25.1999 10.2193V11.0001C25.1999 11.2867 24.9662 11.7363 24.5423 12.1024C24.042 12.5367 23.2994 12.9653 22.3945 13.3403C20.4692 14.1395 18.0225 14.6163 15.85 14.6163C13.6774 14.6163 11.2307 14.1412 9.30544 13.3421C8.40056 12.9671 7.65796 12.5385 7.15764 12.1041C6.73375 11.7358 6.5 11.2863 6.5 11.0001L6.50405 10.2121C6.54225 8.98087 7.59278 7.87817 9.47086 7.10092C11.1867 6.39108 13.4522 6 15.85 6C18.2477 6 20.5133 6.39108 22.2331 7.10092ZM8.75074 22.2945C10.8428 23.1601 13.4967 23.6784 15.85 23.6784C18.2032 23.6784 20.8567 23.1601 22.9488 22.2945C23.6693 21.9932 24.2925 21.517 24.8105 21.1211L24.9109 21.0444C24.9375 21.0242 24.9694 21.0118 25.0027 21.0085C25.0361 21.0053 25.0698 21.0114 25.0998 21.0262C25.1299 21.041 25.1552 21.0638 25.1729 21.0921C25.1906 21.1204 25.2 21.1531 25.1999 21.1864V21.748C25.1999 23.0012 24.144 24.1249 22.2268 24.9097C20.5115 25.6128 18.2472 25.9999 15.85 25.9999C13.4527 25.9999 11.188 25.6128 9.47311 24.9097C7.55592 24.124 6.5 23.0012 6.5 21.748V21.1864C6.49998 21.1531 6.50934 21.1204 6.52703 21.0921C6.54472 21.0638 6.57003 21.041 6.6001 21.0262C6.63017 21.0114 6.6638 21.0053 6.69719 21.0085C6.73058 21.0118 6.76239 21.0242 6.78904 21.0444L6.88469 21.1175C7.4036 21.5144 8.02836 21.9923 8.75074 22.2945ZM22.9488 14.6603C20.8572 15.5278 18.2032 16.0443 15.85 16.0443C13.4968 16.0443 10.8428 15.5278 8.75075 14.6603C8.02522 14.3585 7.39816 13.8775 6.87791 13.4784L6.78905 13.4103C6.76228 13.39 6.7303 13.3775 6.69675 13.3744C6.6632 13.3712 6.62943 13.3775 6.59929 13.3925C6.56916 13.4075 6.54388 13.4305 6.52632 13.4591C6.50877 13.4877 6.49965 13.5206 6.50001 13.5541V14.9282C6.50001 15.2144 6.73376 15.5746 7.15765 15.943C7.65797 16.3778 8.40057 16.8059 9.30545 17.1814C11.2307 17.9792 13.6775 18.4551 15.85 18.4551C18.0225 18.4551 20.4692 17.9783 22.3945 17.1796C23.2994 16.8041 24.042 16.376 24.5423 15.9412C24.9662 15.5742 25.1999 15.2144 25.1999 14.9282V13.5541C25.2 13.5207 25.1906 13.4881 25.1729 13.4598C25.1552 13.4315 25.1299 13.4086 25.0998 13.3939C25.0698 13.3791 25.0361 13.373 25.0028 13.3762C24.9694 13.3794 24.9376 13.3918 24.9109 13.4121L24.8111 13.4883C24.293 13.8842 23.6696 14.3606 22.9488 14.6603ZM15.85 19.8837C18.2032 19.8837 20.8567 19.3663 22.9488 18.4998C23.6695 18.1993 24.2928 17.723 24.8108 17.3271C24.8446 17.3012 24.878 17.2757 24.9109 17.2506C24.9375 17.2304 24.9694 17.2179 25.0028 17.2147C25.0361 17.2115 25.0698 17.2176 25.0998 17.2324C25.1299 17.2472 25.1552 17.27 25.1729 17.2983C25.1906 17.3266 25.2 17.3593 25.1999 17.3926V18.723C25.1999 19.0074 24.9662 19.3676 24.5423 19.7359C24.042 20.1708 23.2994 20.5989 22.3945 20.9744C20.4692 21.773 18.0229 22.2498 15.85 22.2498C13.677 22.2498 11.2307 21.773 9.30544 20.9753C8.40056 20.5998 7.65751 20.1717 7.1572 19.7368C6.73375 19.369 6.5 19.0091 6.5 18.723V17.3926C6.49981 17.3592 6.50905 17.3264 6.52667 17.298C6.5443 17.2695 6.56959 17.2466 6.5997 17.2317C6.6298 17.2168 6.6635 17.2106 6.69697 17.2138C6.73044 17.217 6.76234 17.2294 6.78904 17.2497C6.82021 17.2735 6.85177 17.2977 6.88374 17.3222C7.40284 17.7196 8.02793 18.1982 8.75074 18.4998C10.8428 19.3663 13.4967 19.8837 15.85 19.8837Z" fill="#ffffff"/>
</svg>