<svg width="16" height="16" viewBox="0 0 16 16" fill="none" xmlns="http://www.w3.org/2000/svg">
<path d="M5.33123 15.3333C2.32626 13.6397 1.53511 12.0367 1.98743 9.84732C2.32136 8.23068 3.41477 6.91538 3.51961 5.30184C3.98668 6.15182 4.18185 6.76473 4.23404 7.65296C5.71956 5.8329 6.70123 3.3133 6.75936 0.666626C6.75936 0.666626 10.6286 2.94008 10.8825 6.37416C11.2156 5.66633 11.3833 4.54215 11.0502 3.81356C12.0494 4.54218 17.8982 11.0105 10.258 15.3333C11.6944 12.5364 10.6285 8.76249 8.13448 7.01952C8.30104 7.76897 8.00902 10.5642 6.90563 11.7925C7.21136 9.74017 6.61474 8.87237 6.61474 8.87237C6.61474 8.87237 6.40997 10.0219 5.61548 11.1832C4.88997 12.2436 4.38727 13.3691 5.33123 15.3333Z" fill="#EBC50A"/>
</svg>
