<svg width="24" height="24" viewBox="0 0 24 24" fill="none" xmlns="http://www.w3.org/2000/svg">
<path d="M18.3889 1H8.18968C7.06888 1.00034 6.16121 1.90801 6.16087 3.02885V6.58279C6.16121 7.68416 7.03868 8.57744 8.13279 8.60842V11.8787L5.84222 13.4085C3.43386 15.0038 2.77537 18.2493 4.37071 20.6576C5.96571 23.0659 9.21182 23.7247 11.6198 22.1294L14.2027 20.4066L14.2013 20.4037C16.9358 18.6395 18.5938 15.6087 18.5942 12.3482V8.60085C19.6185 8.4979 20.4171 7.63376 20.4174 6.58279V3.02885C20.4171 1.90801 19.5094 1.00034 18.3889 1ZM18.9758 6.58279C18.9755 6.74736 18.9113 6.8892 18.8041 6.99757C18.6954 7.10524 18.5535 7.16931 18.3889 7.16965H8.18968C8.0252 7.16931 7.88293 7.1052 7.7746 6.99757C7.66731 6.8892 7.60281 6.74736 7.60281 6.58279V3.02885C7.60281 2.86394 7.66731 2.72205 7.7746 2.61334C7.88297 2.50605 8.0252 2.44199 8.18968 2.4416H18.3889C18.5535 2.44199 18.6953 2.50605 18.8041 2.61334C18.9114 2.72205 18.9755 2.86394 18.9758 3.02885V6.58279Z" fill="#FFFFFF"/>
</svg>
