<svg width="16" height="16" viewBox="0 0 16 16" fill="none" xmlns="http://www.w3.org/2000/svg">
<path fill-rule="evenodd" clip-rule="evenodd" d="M8.92743 2.02096L14.5404 12.4446C14.6268 12.6052 14.6701 12.7854 14.6661 12.9677C14.662 13.15 14.6107 13.3282 14.5172 13.4847C14.4237 13.6413 14.2911 13.7709 14.1325 13.8609C13.9739 13.9508 13.7947 13.9981 13.6123 13.9981H2.38539C2.20318 13.9978 2.02414 13.9503 1.86576 13.8602C1.70738 13.7701 1.57507 13.6405 1.48174 13.484C1.38841 13.3275 1.33725 13.1495 1.33326 12.9673C1.32927 12.7851 1.37258 12.605 1.45896 12.4446L7.07159 2.02096C7.46976 1.28191 8.52958 1.28191 8.92743 2.02096ZM7.9911 4.91402H7.99797C8.10818 4.91397 8.21731 4.93625 8.31867 4.97951C8.42005 5.02277 8.51161 5.08613 8.58784 5.16575C8.66406 5.24538 8.72336 5.33962 8.76216 5.44279C8.79967 5.54256 8.80634 5.62669 8.79967 5.73336L8.62595 9.78007C8.6253 9.94546 8.55932 10.1039 8.44233 10.2209C8.32475 10.3385 8.16528 10.4046 7.99901 10.4046C7.83273 10.4046 7.67327 10.3385 7.55569 10.2209C7.43869 10.1039 7.37271 9.94546 7.37207 9.78007L7.18313 5.766C7.17829 5.65662 7.19551 5.5471 7.23378 5.44451C7.27206 5.34193 7.33059 5.2481 7.4059 5.16862C7.48121 5.08915 7.57175 5.02564 7.67213 4.9819C7.7725 4.93816 7.88066 4.91508 7.99014 4.91403L7.9911 4.91402ZM7.85166 10.9816C7.99882 10.9523 8.15137 10.9673 8.29 11.0247C8.42863 11.0822 8.54712 11.1794 8.63049 11.3042C8.71385 11.4289 8.75835 11.5756 8.75835 11.7257C8.75835 11.8253 8.73873 11.924 8.7006 12.016C8.66247 12.108 8.60659 12.1917 8.53614 12.2621C8.46568 12.3326 8.38205 12.3885 8.29 12.4266C8.19795 12.4647 8.0993 12.4844 7.99967 12.4844C7.84961 12.4844 7.70293 12.4399 7.57817 12.3565C7.4534 12.2731 7.35616 12.1546 7.29874 12.016C7.24131 11.8774 7.22629 11.7248 7.25556 11.5777C7.28484 11.4305 7.35709 11.2953 7.4632 11.1892C7.5693 11.0831 7.70448 11.0108 7.85166 10.9816Z" fill="#EBC50A"/>
</svg>
