<svg width="24" height="24" viewBox="0 0 24 24" fill="none" xmlns="http://www.w3.org/2000/svg">
<path fill-rule="evenodd" clip-rule="evenodd" d="M13.3916 3.03137L21.8111 18.6668C21.9407 18.9077 22.0057 19.1781 21.9996 19.4515C21.9935 19.725 21.9166 19.9922 21.7763 20.227C21.636 20.4618 21.4372 20.6562 21.1993 20.7912C20.9613 20.9262 20.6925 20.9971 20.419 20.9971H3.57858C3.30526 20.9967 3.0367 20.9255 2.79913 20.7903C2.56156 20.6552 2.3631 20.4607 2.2231 20.226C2.08311 19.9912 2.00637 19.7242 2.00038 19.4509C1.99439 19.1777 2.05935 18.9075 2.18892 18.6668L10.6079 3.03137C11.2051 1.92281 12.7949 1.92281 13.3916 3.03137ZM11.9871 7.37097H11.9974C12.1628 7.3709 12.3264 7.40431 12.4785 7.4692C12.6306 7.53409 12.7679 7.62913 12.8822 7.74856C12.9966 7.868 13.0855 8.00937 13.1437 8.16412C13.2 8.31378 13.21 8.43998 13.2 8.59998L12.9394 14.67C12.9384 14.9181 12.8395 15.1558 12.664 15.3313C12.4876 15.5077 12.2484 15.6068 11.999 15.6068C11.7496 15.6068 11.5104 15.5077 11.334 15.3313C11.1585 15.1558 11.0596 14.9181 11.0586 14.67L10.7752 8.64894C10.7679 8.48486 10.7937 8.32058 10.8512 8.16671C10.9086 8.01283 10.9964 7.87209 11.1093 7.75288C11.2223 7.63366 11.3581 7.53841 11.5087 7.47279C11.6592 7.40718 11.8215 7.37256 11.9857 7.37098L11.9871 7.37097ZM11.778 16.4723C11.9987 16.4284 12.2275 16.4509 12.4355 16.537C12.6434 16.6232 12.8212 16.769 12.9462 16.9562C13.0713 17.1433 13.138 17.3634 13.138 17.5884C13.138 17.7379 13.1086 17.8859 13.0514 18.0239C12.9942 18.162 12.9104 18.2875 12.8047 18.3931C12.699 18.4988 12.5736 18.5826 12.4355 18.6398C12.2974 18.697 12.1494 18.7265 12 18.7265C11.7749 18.7265 11.5549 18.6597 11.3677 18.5347C11.1806 18.4096 11.0347 18.2319 10.9486 18.0239C10.8625 17.816 10.8399 17.5872 10.8838 17.3664C10.9277 17.1457 11.0361 16.9429 11.1953 16.7837C11.3544 16.6246 11.5572 16.5162 11.778 16.4723Z" fill="#EBC50A"/>
</svg>
