<svg width="343" height="132" viewBox="0 0 343 132" fill="none" xmlns="http://www.w3.org/2000/svg">
<g clip-path="url(#clip0_15616_68726)">
<rect width="343" height="132" rx="12" fill="url(#paint0_diamond_15616_68726)"/>
<path opacity="0.1" d="M267.5 150C314.168 150 352 112.168 352 65.5C352 18.8319 314.168 -19 267.5 -19C220.832 -19 183 18.8319 183 65.5C183 112.168 220.832 150 267.5 150Z" fill="#517DED"/>
<path opacity="0.1" d="M316.384 114.386C343.383 87.387 343.383 43.613 316.384 16.614C289.385 -10.3851 245.611 -10.3851 218.612 16.6139C191.613 43.613 191.613 87.387 218.612 114.386C245.611 141.385 289.385 141.385 316.384 114.386Z" fill="#517DED"/>
<path opacity="0.3" d="M279.438 119.499C309.263 112.908 328.099 83.3877 321.509 53.5625C314.918 23.7373 285.398 4.90161 255.573 11.4919C225.747 18.0821 206.912 47.6027 213.502 77.4279C220.092 107.253 249.613 126.089 279.438 119.499Z" fill="#517DED"/>
<path opacity="0.5" d="M311.203 72.4221C315.026 48.2848 298.558 25.6184 274.421 21.7954C250.284 17.9725 227.617 34.4405 223.794 58.5779C219.971 82.7153 236.439 105.382 260.577 109.205C284.714 113.028 307.38 96.5595 311.203 72.4221Z" fill="#517DED"/>
<path fill-rule="evenodd" clip-rule="evenodd" d="M320.503 93.445C321.466 92.1446 323.161 91.6691 324.353 92.4425H324.347C325.539 93.2159 325.711 95.072 324.651 96.5099C323.241 98.4233 321.723 100.262 320.108 102.01C319.707 102.445 319.294 102.875 318.882 103.304L318.303 103.889C311.801 110.402 303.89 115.501 295.262 118.715C290.954 120.33 286.462 121.465 281.908 122.118C279.634 122.444 277.336 122.65 275.039 122.731C272.753 122.811 270.416 122.777 268.102 122.57C258.838 121.774 249.81 118.411 242.276 112.963C234.726 107.538 228.67 100.068 224.946 91.543C223.085 87.2865 221.796 82.7722 221.131 78.172C220.793 75.869 220.615 73.5488 220.593 71.2287C220.564 68.8913 220.724 66.5253 221.08 64.2051C221.79 59.5533 223.291 55.0219 225.502 50.8685C227.708 46.7151 230.618 42.9341 234.061 39.7316C237.504 36.5235 241.486 33.8997 245.794 32.0035C250.102 30.1015 254.731 28.9386 259.422 28.5719C260.591 28.4803 261.766 28.4344 262.946 28.4402C264.137 28.4459 265.335 28.5146 266.52 28.6407C268.898 28.8927 271.247 29.4026 273.515 30.1473C278.058 31.6368 282.269 34.106 285.809 37.3084C289.35 40.5108 292.22 44.4579 294.151 48.829C296.093 53.1944 297.095 57.9779 297.084 62.75C297.089 67.6138 295.789 72.4833 293.343 76.6939C290.908 80.9104 287.362 84.4622 283.145 86.9027C278.941 89.3546 274.065 90.6608 269.207 90.6608C264.235 90.6952 259.245 89.0281 255.298 85.9975C251.333 82.9899 248.389 78.6589 247.083 73.841C246.75 72.6437 246.527 71.412 246.395 70.1746C246.269 68.9314 246.229 67.6997 246.321 66.4107C246.504 63.8614 247.22 61.3407 248.412 59.0721C250.772 54.5234 255.057 51.0346 260.013 49.6711C261.25 49.3274 262.516 49.1097 263.794 49.0238C265.048 48.9378 266.4 48.9722 267.701 49.2014C270.313 49.6425 272.805 50.7711 274.862 52.4382C276.918 54.0995 278.545 56.2879 279.531 58.7513C280.023 59.983 280.356 61.2777 280.522 62.5896C280.602 63.2427 280.642 63.9072 280.642 64.5661C280.642 65.2535 280.585 65.941 280.476 66.6227C280.046 69.3496 278.7 71.9219 276.724 73.8353C274.759 75.7659 272.152 77.0377 269.414 77.3986C268.726 77.4903 268.056 77.5304 267.34 77.5074C266.618 77.4845 265.896 77.3929 265.191 77.2267C263.776 76.9002 262.436 76.2815 261.267 75.4279C260.964 75.2102 260.677 74.9753 260.402 74.729C260.62 75.0211 260.849 75.3018 261.101 75.5711C262.31 76.8715 263.845 77.8512 265.535 78.384C266.366 78.6475 267.294 78.8193 268.222 78.8995C269.144 78.9797 270.078 78.9626 271 78.8537C274.69 78.4298 278.173 76.4018 280.373 73.3999C281.478 71.9104 282.269 70.1917 282.687 68.3757C283.111 66.5081 283.243 64.5489 283.042 62.6354C282.664 58.8029 280.963 55.1078 278.31 52.3007C275.658 49.4706 272.118 47.5916 268.251 46.9614C264.338 46.274 260.259 46.6406 256.535 48.0155C252.811 49.379 249.449 51.7392 246.899 54.7812C244.339 57.8232 242.626 61.5126 241.927 65.4655C241.188 69.4585 241.297 73.6004 242.253 77.5418C243.204 81.4832 244.997 85.2299 247.466 88.4495C249.936 91.6748 253.081 94.3788 256.644 96.3094C258.42 97.2776 260.305 98.0567 262.253 98.6353C264.189 99.2139 266.24 99.5863 268.291 99.8154C272.398 100.262 276.575 100.01 280.596 99.0707C284.618 98.1312 288.479 96.5156 291.974 94.3101C298.986 89.916 304.434 83.1217 307.155 75.3133C307.842 73.3598 308.352 71.3719 308.725 69.3038C309.097 67.2414 309.338 65.1561 309.435 63.0651C309.636 58.8831 309.269 54.6781 308.341 50.5935C306.502 42.4242 302.417 34.7648 296.665 28.675C290.931 22.5681 283.529 18.0595 275.463 15.7738C273.452 15.1951 271.39 14.7655 269.293 14.4275C267.202 14.0895 265.094 13.8661 262.98 13.7572C258.752 13.5338 254.501 13.7687 250.325 14.4561C246.149 15.1436 242.047 16.2836 238.111 17.8476C236.141 18.6267 234.216 19.5147 232.342 20.5C231.409 20.9927 230.486 21.5083 229.575 22.0525C229.123 22.3218 228.67 22.6025 228.223 22.8832L227.29 23.4847C226.831 23.7826 226.379 24.092 225.932 24.4071C224.133 25.6617 222.414 27.0137 220.764 28.4573L220.467 28.7209C219.258 29.7979 217.499 29.9125 216.496 28.9099C215.494 27.9074 215.706 26.057 217.041 24.8711C218.817 23.29 220.679 21.8062 222.621 20.4313C223.102 20.0875 223.594 19.7495 224.087 19.4173L224.775 18.9647C232.486 13.9405 241.279 10.5834 250.388 9.22572C254.943 8.53826 259.571 8.35494 264.16 8.65856C266.452 8.81324 268.743 9.08823 271.006 9.48351C273.263 9.8788 275.538 10.3944 277.76 11.0761C286.657 13.7744 294.798 18.9303 301.042 25.8164C307.304 32.6852 311.686 41.2498 313.565 50.3586C314.511 54.9073 314.837 59.5877 314.534 64.2281C314.385 66.5482 314.075 68.8569 313.623 71.1313C313.17 73.4228 312.529 75.7029 311.698 77.9027C310.042 82.3082 307.63 86.4272 304.611 90.0364C301.592 93.6455 297.966 96.7448 293.933 99.1624C289.9 101.586 285.46 103.333 280.854 104.295C276.248 105.264 271.476 105.441 266.813 104.834C265.644 104.679 264.487 104.484 263.335 104.232C262.172 103.98 261.015 103.671 259.881 103.299C257.612 102.56 255.418 101.574 253.35 100.377C249.214 97.9822 245.605 94.6939 242.803 90.8269C240.008 86.96 238.014 82.503 237.029 77.8283C236.037 73.1478 236.043 68.2611 237.04 63.5979C238.043 58.843 240.323 54.3458 243.582 50.731C246.836 47.1104 251.041 44.3663 255.67 42.8481C260.293 41.3185 265.329 41.0493 270.084 42.0518C274.953 43.0486 279.491 45.7125 282.727 49.4935C285.987 53.2574 287.975 58.1039 288.256 63.088C288.33 64.3312 288.296 65.5801 288.17 66.8175C288.032 68.0549 287.82 69.2694 287.465 70.5126C286.76 72.9702 285.54 75.2904 283.907 77.2611C280.659 81.2254 275.738 83.7518 270.611 84.0612C269.333 84.1414 268.044 84.0899 266.778 83.9123C265.529 83.7404 264.217 83.4253 262.992 82.9326C260.522 81.9645 258.317 80.3432 256.65 78.2866C254.977 76.2356 253.837 73.7551 253.384 71.1427C253.155 69.8366 253.098 68.5017 253.207 67.1841C253.264 66.5253 253.361 65.8722 253.499 65.2249C253.648 64.5546 253.843 63.8901 254.089 63.2484C255.08 60.6647 256.925 58.4305 259.256 56.9639C261.577 55.4859 264.389 54.7755 267.145 54.9932C267.838 55.0448 268.497 55.1422 269.196 55.314C269.757 55.4515 270.313 55.6463 270.851 55.8754C269.448 54.9416 267.827 54.3516 266.148 54.1854C265.289 54.0995 264.338 54.1282 263.415 54.237C262.493 54.3516 261.582 54.5578 260.706 54.8557C257.183 56.0358 254.192 58.7398 252.662 62.1313C251.889 63.8213 251.477 65.666 251.442 67.5278C251.414 69.4413 251.694 71.3891 252.284 73.2166C253.447 76.8887 255.876 80.1484 259.05 82.3483C262.224 84.5653 266.079 85.6767 269.992 85.4934C273.962 85.3559 277.875 84.1586 281.238 82.0389C284.606 79.9307 287.408 76.9288 289.27 73.4228C291.149 69.9168 292.06 65.9524 291.928 61.9423C291.819 57.8805 290.856 53.8532 289.109 50.1925C287.362 46.5317 284.835 43.2377 281.753 40.5967C278.671 37.95 275.039 35.9564 271.149 34.8049C269.207 34.2263 267.202 33.8482 265.18 33.6878C263.169 33.5216 261.084 33.5789 259.027 33.7794C254.914 34.1919 250.881 35.3033 247.14 37.0506C243.399 38.7978 239.95 41.181 236.988 44.0626C231.042 49.8144 227.112 57.5941 226.064 65.792C225.789 67.8487 225.703 69.8938 225.766 71.9963C225.823 74.0931 226.018 76.1784 226.356 78.2465C227.026 82.3827 228.258 86.4215 230.005 90.2254C233.494 97.839 239.074 104.484 245.96 109.257C252.834 114.046 261.009 116.927 269.373 117.495C271.453 117.649 273.561 117.644 275.687 117.54C277.801 117.437 279.909 117.214 282 116.887C286.182 116.234 290.295 115.123 294.236 113.588C298.184 112.052 301.959 110.087 305.488 107.744C307.247 106.575 308.954 105.309 310.581 103.957C311.394 103.281 312.191 102.582 312.97 101.866C313.359 101.505 313.743 101.139 314.121 100.772L314.912 99.9873C315.301 99.5977 315.679 99.2025 316.052 98.8014C317.547 97.2031 318.956 95.5188 320.268 93.7658L320.503 93.445ZM334.172 65.8666C332.763 65.7062 331.457 66.8921 331.182 68.4847L331.113 68.8742C330.947 69.8023 330.758 70.7304 330.54 71.647C330.179 73.2224 330.918 74.8207 332.282 75.2217C333.639 75.6228 335.163 74.5457 335.564 72.8042L335.662 72.3802C335.885 71.3777 336.085 70.3694 336.263 69.3612C336.572 67.6024 335.587 66.0213 334.178 65.8609L334.172 65.8666ZM331.56 77.5934C330.208 77.1637 328.701 78.0746 328.117 79.5813L327.973 79.9537C327.091 82.1936 326.077 84.382 324.926 86.5017C324.158 87.9224 324.445 89.664 325.653 90.4145C326.856 91.1592 328.609 90.529 329.463 88.9594L329.669 88.5755C330.901 86.2668 331.989 83.8779 332.935 81.4374C333.576 79.7703 332.917 78.0288 331.565 77.5991L331.56 77.5934ZM334.424 63.4091C335.845 63.5351 337.1 62.4352 337.157 60.9399C337.22 59.4505 336.057 58.2474 334.636 58.2589C333.21 58.2703 332.064 59.376 332.007 60.728C331.949 62.08 333.003 63.2773 334.424 63.4091ZM201.464 45.8044C202.22 44.1832 203.933 43.4499 205.176 44.1202L205.188 44.1259C206.437 44.7962 206.832 46.5148 206.15 47.9814C205.749 48.835 205.371 49.7 205.016 50.5765L204.867 50.9432C204.26 52.4441 202.742 53.3321 201.395 52.8852C200.049 52.4384 199.413 50.6854 200.078 49.0297C200.456 48.0788 200.863 47.1335 201.286 46.1997L201.464 45.8044ZM210.779 31.276L210.498 31.6083C208.814 33.6134 207.256 35.7216 205.829 37.9215C204.856 39.4167 205.142 41.2614 206.374 41.9603C207.611 42.6592 209.272 42.0806 210.155 40.7286L210.372 40.3963C211.696 38.3855 213.145 36.4549 214.703 34.6217C215.752 33.39 215.826 31.6255 214.801 30.6459C213.781 29.6662 211.931 29.9183 210.773 31.2818L210.779 31.276ZM197.454 57.0899C197.821 55.6405 199.276 54.8213 200.639 55.2395C201.997 55.6577 202.782 57.0498 202.449 58.3617C202.111 59.6736 200.765 60.5215 199.367 60.235C197.975 59.9543 197.082 58.5336 197.454 57.0899Z" fill="url(#paint1_linear_15616_68726)"/>
<path opacity="0.05" d="M267.74 73.5111C271.58 73.4132 274.614 70.2209 274.516 66.3809C274.418 62.5408 271.226 59.5072 267.386 59.605C263.546 59.7029 260.512 62.8952 260.61 66.7353C260.708 70.5753 263.9 73.609 267.74 73.5111Z" fill="#B8FFEE"/>
<path opacity="0.1" d="M267.735 73.3452C271.481 73.249 274.44 70.1343 274.344 66.3881C274.248 62.642 271.133 59.683 267.387 59.7792C263.641 59.8753 260.682 62.9901 260.778 66.7362C260.874 70.4824 263.989 73.4413 267.735 73.3452Z" fill="#B8FFEE"/>
<path opacity="0.14" d="M267.652 73.1759C271.305 73.1262 274.226 70.1244 274.176 66.4713C274.127 62.8182 271.125 59.897 267.472 59.9468C263.819 59.9965 260.898 62.9983 260.947 66.6514C260.997 70.3045 263.999 73.2256 267.652 73.1759Z" fill="#B8FFEE"/>
<path opacity="0.19" d="M267.65 73.0073C271.21 72.9589 274.057 70.0335 274.008 66.4733C273.96 62.9132 271.034 60.0664 267.474 60.1149C263.914 60.1633 261.067 63.0887 261.116 66.6489C261.164 70.209 264.09 73.0558 267.65 73.0073Z" fill="#B8FFEE"/>
<path opacity="0.24" d="M267.718 72.8336C271.184 72.7477 273.924 69.8688 273.838 66.4033C273.752 62.9378 270.873 60.1981 267.407 60.284C263.942 60.3699 261.202 63.2489 261.288 66.7144C261.374 70.1798 264.253 72.9195 267.718 72.8336Z" fill="#B8FFEE"/>
<path opacity="0.29" d="M267.719 72.6644C271.09 72.5784 273.754 69.7756 273.668 66.404C273.582 63.0325 270.779 60.369 267.408 60.4549C264.036 60.5408 261.373 63.3437 261.459 66.7152C261.545 70.0868 264.347 72.7503 267.719 72.6644Z" fill="#B8FFEE"/>
<path opacity="0.33" d="M267.643 72.4972C270.921 72.4525 273.543 69.7587 273.498 66.4803C273.453 63.2019 270.76 60.5804 267.481 60.625C264.203 60.6696 261.581 63.3635 261.626 66.6419C261.67 69.9203 264.364 72.5418 267.643 72.4972Z" fill="#B8FFEE"/>
<path opacity="0.38" d="M267.736 72.3249C270.921 72.2293 273.424 69.5704 273.329 66.3861C273.233 63.2018 270.574 60.6979 267.39 60.7935C264.206 60.8891 261.702 63.548 261.797 66.7323C261.893 69.9167 264.552 72.4205 267.736 72.3249Z" fill="#B8FFEE"/>
<path opacity="0.43" d="M267.731 72.1548C270.822 72.062 273.252 69.4815 273.159 66.391C273.066 63.3006 270.485 60.8705 267.395 60.9633C264.305 61.0561 261.875 63.6367 261.967 66.7271C262.06 69.8175 264.641 72.2476 267.731 72.1548Z" fill="#B8FFEE"/>
<path opacity="0.48" d="M272.002 69.6866C273.728 67.2348 273.138 63.8487 270.687 62.1236C268.235 60.3985 264.849 60.9876 263.124 63.4395C261.398 65.8913 261.988 69.2774 264.439 71.0025C266.891 72.7276 270.277 72.1384 272.002 69.6866Z" fill="#B8FFEE"/>
<path opacity="0.52" d="M267.633 71.8187C270.537 71.7792 272.859 69.3932 272.82 66.4895C272.78 63.5858 270.394 61.2639 267.49 61.3035C264.587 61.343 262.265 63.729 262.304 66.6327C262.344 69.5364 264.73 71.8583 267.633 71.8187Z" fill="#B8FFEE"/>
<path opacity="0.57" d="M267.71 71.6496C270.52 71.5672 272.731 69.2226 272.649 66.4128C272.566 63.603 270.222 61.392 267.412 61.4744C264.602 61.5568 262.391 63.9014 262.474 66.7112C262.556 69.521 264.901 71.732 267.71 71.6496Z" fill="#B8FFEE"/>
<path opacity="0.62" d="M267.709 71.4768C270.425 71.3952 272.56 69.1275 272.479 66.4116C272.397 63.6958 270.13 61.5602 267.414 61.6418C264.698 61.7233 262.562 63.9911 262.644 66.707C262.725 69.4228 264.993 71.5584 267.709 71.4768Z" fill="#B8FFEE"/>
<path opacity="0.67" d="M272.262 67.2445C272.639 64.6486 270.841 62.2381 268.246 61.8603C265.65 61.4825 263.239 63.2806 262.861 65.8765C262.484 68.4723 264.282 70.8828 266.878 71.2606C269.473 71.6384 271.884 69.8403 272.262 67.2445Z" fill="#B8FFEE"/>
<path opacity="0.71" d="M267.699 71.1387C270.227 71.0628 272.215 68.9518 272.139 66.4237C272.063 63.8956 269.952 61.9077 267.424 61.9836C264.896 62.0596 262.908 64.1705 262.984 66.6986C263.06 69.2267 265.171 71.2146 267.699 71.1387Z" fill="#B8FFEE"/>
<path opacity="0.76" d="M267.694 70.97C270.129 70.8969 272.044 68.8635 271.971 66.4284C271.898 63.9932 269.864 62.0784 267.429 62.1515C264.994 62.2246 263.079 64.258 263.152 66.6932C263.225 69.1283 265.259 71.0432 267.694 70.97Z" fill="#B8FFEE"/>
<path opacity="0.81" d="M267.562 70.8014C269.904 70.8014 271.803 68.9026 271.803 66.5602C271.803 64.2179 269.904 62.319 267.562 62.319C265.22 62.319 263.321 64.2179 263.321 66.5602C263.321 68.9026 265.22 70.8014 267.562 70.8014Z" fill="#B8FFEE"/>
<path opacity="0.86" d="M271.59 67.1458C271.913 64.9208 270.372 62.8548 268.147 62.5314C265.922 62.208 263.856 63.7496 263.532 65.9746C263.209 68.1997 264.751 70.2656 266.976 70.589C269.201 70.9124 271.267 69.3709 271.59 67.1458Z" fill="#B8FFEE"/>
<path opacity="0.9" d="M267.562 70.4613C269.716 70.4613 271.463 68.7147 271.463 66.5602C271.463 64.4057 269.716 62.6591 267.562 62.6591C265.407 62.6591 263.661 64.4057 263.661 66.5602C263.661 68.7147 265.407 70.4613 267.562 70.4613Z" fill="#B8FFEE"/>
<path opacity="0.95" d="M267.674 70.2921C269.734 70.2302 271.354 68.5096 271.293 66.449C271.231 64.3884 269.51 62.7681 267.449 62.8299C265.389 62.8918 263.769 64.6124 263.83 66.673C263.892 68.7336 265.613 70.3539 267.674 70.2921Z" fill="#B8FFEE"/>
<path d="M267.562 70.1229C269.53 70.1229 271.125 68.5278 271.125 66.5602C271.125 64.5926 269.53 62.9976 267.562 62.9976C265.594 62.9976 263.999 64.5926 263.999 66.5602C263.999 68.5278 265.594 70.1229 267.562 70.1229Z" fill="#B8FFEE"/>
<path d="M226.217 58.2043C233.383 61.5251 241.883 58.4085 245.204 51.2431C248.525 44.0778 245.408 35.5771 238.243 32.2564C231.078 28.9356 222.577 32.0522 219.256 39.2175C215.936 46.3828 219.052 54.8835 226.217 58.2043Z" fill="#FF8C00"/>
<path d="M236.551 35.9076C232.696 34.1209 228.093 35.793 226.298 39.6666C225.937 40.4451 225.715 41.2651 225.612 42.1181C225.547 42.6959 225.974 43.2316 226.571 43.3053C227.148 43.3704 227.684 42.9432 227.758 42.3469C227.82 41.6779 228.011 41.0233 228.313 40.4203C229.598 37.8413 232.708 36.6706 235.381 37.752C238.36 38.9523 239.695 42.3857 238.364 45.2585C237.118 47.946 233.983 49.1723 231.264 48.0923C231.264 48.0923 230.256 47.6926 229.74 47.5434C229.482 47.4688 229.279 47.42 229.141 47.3784C229.077 47.3712 229.047 47.2898 229.091 47.2428L229.636 46.5046L232.485 42.7368C232.837 42.2693 232.744 41.5958 232.277 41.244C231.809 40.8923 231.136 40.9854 230.784 41.4529C230.784 41.4529 223.872 50.6331 223.802 50.7357C223.451 51.2031 223.544 51.8767 224.011 52.2284C224.479 52.5801 225.152 52.487 225.504 52.0196C225.574 51.917 226.498 50.7014 226.498 50.7014C227.201 49.7666 228.406 49.4018 229.467 49.7359C229.706 49.8019 230.603 50.15 230.603 50.15C234.346 51.547 238.601 49.8488 240.31 46.1605C242.105 42.2868 240.406 37.6943 236.551 35.9076ZM229.578 52.2643C229.008 51.8425 228.198 51.9397 227.767 52.5283C227.346 53.0983 227.443 53.9088 228.031 54.3392C228.601 54.761 229.412 54.6638 229.842 54.0753C230.273 53.4867 230.167 52.6947 229.578 52.2643Z" fill="white"/>
<g clip-path="url(#clip1_15616_68726)">
<path d="M324.552 68.9719L310.906 72.5507L314.701 68.7276L324.552 68.9719Z" fill="#E2761B" stroke="#E2761B" stroke-width="1.30027" stroke-linecap="round" stroke-linejoin="round"/>
<path d="M300.294 59.2169L307.549 71.287L307.583 65.8653L300.294 59.2169Z" fill="#E4761B" stroke="#E4761B" stroke-width="1.30027" stroke-linecap="round" stroke-linejoin="round"/>
<path d="M313.497 85.5424L308.974 88.7047L314.299 92.7602L318.369 87.6123L313.497 85.5424Z" fill="#E4761B" stroke="#E4761B" stroke-width="1.30027" stroke-linecap="round" stroke-linejoin="round"/>
<path d="M291.872 76.9567L291.234 83.4849L297.885 84.2454L296.81 78.8322L291.872 76.9567Z" fill="#E4761B" stroke="#E4761B" stroke-width="1.30027" stroke-linecap="round" stroke-linejoin="round"/>
<path d="M302.184 72.577L299.5 74.43L305.34 77.085L307.698 70.6108L302.184 72.577Z" fill="#E4761B" stroke="#E4761B" stroke-width="1.30027" stroke-linecap="round" stroke-linejoin="round"/>
<path d="M313.938 77.3037L311.298 71.9722L308.561 78.3803L314.603 80.503L313.938 77.3037Z" fill="#E4761B" stroke="#E4761B" stroke-width="1.30027" stroke-linecap="round" stroke-linejoin="round"/>
<path d="M297.885 84.2453L302.155 83.9382L300.04 80.2903L297.885 84.2453Z" fill="#E4761B" stroke="#E4761B" stroke-width="1.30027" stroke-linecap="round" stroke-linejoin="round"/>
<path d="M306.094 85.5224L308.974 88.7046L310.146 84.3546L306.094 85.5224Z" fill="#E4761B" stroke="#E4761B" stroke-width="1.30027" stroke-linecap="round" stroke-linejoin="round"/>
<path d="M308.973 88.7044L306.094 85.5222L305.44 87.9708L305.014 88.9402L308.973 88.7044Z" fill="#D7C1B3" stroke="#D7C1B3" stroke-width="1.30027" stroke-linecap="round" stroke-linejoin="round"/>
<path d="M297.885 84.2453L300.579 87.1567L300.952 86.166L302.155 83.9382L297.885 84.2453Z" fill="#D7C1B3" stroke="#D7C1B3" stroke-width="1.30027" stroke-linecap="round" stroke-linejoin="round"/>
<path d="M297.885 84.2456L300.116 80.1618L296.772 78.9275L297.885 84.2456Z" fill="#CD6116" stroke="#CD6116" stroke-width="1.30027" stroke-linecap="round" stroke-linejoin="round"/>
<path d="M310.191 84.2132L308.973 88.7048L313.458 85.6375L310.191 84.2132Z" fill="#CD6116" stroke="#CD6116" stroke-width="1.30027" stroke-linecap="round" stroke-linejoin="round"/>
<path d="M314.603 80.5033L308.561 78.3805L307.883 81.6535L309.499 80.1684L311.224 81.9788L314.603 80.5033Z" fill="#CD6116" stroke="#CD6116" stroke-width="1.30027" stroke-linecap="round" stroke-linejoin="round"/>
<path d="M300.928 77.838L303.426 77.7264L303.553 79.9122L305.34 77.0852L299.501 74.4302L300.928 77.838Z" fill="#CD6116" stroke="#CD6116" stroke-width="1.30027" stroke-linecap="round" stroke-linejoin="round"/>
<path d="M303.553 79.9121L300.928 77.8379L303.416 77.722L303.553 79.9121Z" fill="#233447" stroke="#233447" stroke-width="1.30027" stroke-linecap="round" stroke-linejoin="round"/>
<path d="M307.873 81.6491L309.488 80.164L311.214 81.9744L307.873 81.6491Z" fill="#233447" stroke="#233447" stroke-width="1.30027" stroke-linecap="round" stroke-linejoin="round"/>
<path d="M299.5 74.4299L300.039 80.2902L300.927 77.8378L299.5 74.4299Z" fill="#E4751F" stroke="#E4751F" stroke-width="1.30027" stroke-linecap="round" stroke-linejoin="round"/>
<path d="M311.224 81.9786L310.146 84.3546L314.602 80.5031L311.224 81.9786Z" fill="#E4751F" stroke="#E4751F" stroke-width="1.30027" stroke-linecap="round" stroke-linejoin="round"/>
<path d="M305.34 77.0849L303.552 79.9119L302.801 83.7935L304.867 79.1154L305.34 77.0849Z" fill="#E4751F" stroke="#E4751F" stroke-width="1.30027" stroke-linecap="round" stroke-linejoin="round"/>
<path d="M308.561 78.3802L307.511 80.1665L305.727 84.9699L307.882 81.6531L308.561 78.3802Z" fill="#E4751F" stroke="#E4751F" stroke-width="1.30027" stroke-linecap="round" stroke-linejoin="round"/>
<path d="M307.883 81.6535L305.727 84.9702L306.094 85.5225L310.146 84.3548L311.224 81.9788L307.883 81.6535Z" fill="#F6851B" stroke="#F6851B" stroke-width="1.30027" stroke-linecap="round" stroke-linejoin="round"/>
<path d="M300.928 77.8381L300.04 80.2905L302.155 83.9385L302.802 83.7938L303.553 79.9123L300.928 77.8381Z" fill="#F6851B" stroke="#F6851B" stroke-width="1.30027" stroke-linecap="round" stroke-linejoin="round"/>
<path d="M305.014 88.9406L305.441 87.9711L305.27 87.6326L301.289 86.0315L300.953 86.1662L300.579 87.1569L297.885 84.2455L298.664 85.6632L300.361 88.2472L304.406 89.8737L307.43 89.1881L308.974 88.7048L305.014 88.9406Z" fill="#C0AD9E" stroke="#C0AD9E" stroke-width="1.30027" stroke-linecap="round" stroke-linejoin="round"/>
<path d="M306.094 85.5224L305.727 84.9701L302.802 83.7937L302.155 83.9383L300.952 86.1661L301.288 86.0314L305.27 87.6325L305.441 87.971L306.094 85.5224Z" fill="#161616" stroke="#161616" stroke-width="1.30027" stroke-linecap="round" stroke-linejoin="round"/>
<path d="M321.653 77.4617L324.284 73.5139L324.552 68.9719L311.36 72.4269L313.939 77.3038L318.812 81.1408L320.61 80.2077L320.235 79.6151L321.39 79.1839L320.939 78.4137L322.043 78.1093L321.653 77.4617Z" fill="#763D16" stroke="#763D16" stroke-width="1.30027" stroke-linecap="round" stroke-linejoin="round"/>
<path d="M297.353 62.6842L296.518 67.3541L295.778 67.5472L296.364 68.5311L295.516 68.779L296.051 69.8897L295.37 70.0575L296.011 71.9717L302.184 72.577L307.421 70.8428L300.294 59.2168L297.353 62.6842Z" fill="#763D16" stroke="#763D16" stroke-width="1.30027" stroke-linecap="round" stroke-linejoin="round"/>
<path d="M318.812 81.1407L313.938 77.3037L314.603 80.503L310.146 84.3545L313.458 85.6373L318.369 87.6121L318.812 81.1407Z" fill="#F6851B" stroke="#F6851B" stroke-width="1.30027" stroke-linecap="round" stroke-linejoin="round"/>
<path d="M302.185 72.5771L296.011 71.9718L291.872 76.9568L296.772 78.9274L300.04 80.2904L299.501 74.4301L302.185 72.5771Z" fill="#F6851B" stroke="#F6851B" stroke-width="1.30027" stroke-linecap="round" stroke-linejoin="round"/>
<path d="M308.561 78.3803L311.36 72.4268L314.711 68.7318L307.582 65.8652L307.421 70.8427L305.34 77.085L304.694 79.058L302.802 83.7936L305.727 84.97L307.651 80.2472L308.561 78.3803Z" fill="#F6851B" stroke="#F6851B" stroke-width="1.30027" stroke-linecap="round" stroke-linejoin="round"/>
</g>
</g>
<rect x="0.5" y="0.5" width="342" height="131" rx="11.5" stroke="#999EC7" stroke-opacity="0.16"/>
<defs>
<radialGradient id="paint0_diamond_15616_68726" cx="0" cy="0" r="1" gradientUnits="userSpaceOnUse" gradientTransform="translate(197 60.8793) rotate(50.0456) scale(270.174 787.419)">
<stop stop-color="#0F3C72"/>
<stop offset="0.25" stop-color="#290A5C"/>
<stop offset="0.473958" stop-color="#010527"/>
<stop offset="1"/>
</radialGradient>
<linearGradient id="paint1_linear_15616_68726" x1="267.264" y1="8.51709" x2="267.264" y2="122.771" gradientUnits="userSpaceOnUse">
<stop stop-color="#325ED1"/>
<stop offset="1" stop-color="#00F0FF"/>
</linearGradient>
<clipPath id="clip0_15616_68726">
<rect width="343" height="132" rx="12" fill="white"/>
</clipPath>
<clipPath id="clip1_15616_68726">
<rect width="36.2657" height="36.2657" fill="white" transform="translate(297.112 53.582) rotate(21.9068)"/>
</clipPath>
</defs>
</svg>
