<svg width="24" height="24" viewBox="0 0 24 24" fill="none" xmlns="http://www.w3.org/2000/svg">
<g clip-path="url(#clip0_4812_22523)">
<path d="M21.0662 22.408L17.667 18.0564C16.9036 18.0476 16.5317 17.4518 16.3319 17.1305C16.3114 17.0968 16.2865 17.0569 16.2617 17.0185C16.2368 17.0566 16.2119 17.0965 16.1914 17.1298C15.9901 17.4533 15.6146 18.0557 14.8409 18.0557C14.0665 18.055 13.6925 17.4522 13.4912 17.1287C13.4707 17.095 13.4458 17.0551 13.4209 17.0163C13.3953 17.0547 13.3712 17.0946 13.3499 17.1283C13.1486 17.4518 12.7731 18.0539 12.0002 18.0539C11.2257 18.0531 10.8517 17.4504 10.6504 17.1261C10.63 17.0928 10.6051 17.053 10.5802 17.0141C10.5545 17.053 10.5296 17.0928 10.5092 17.1261C10.3079 17.4497 9.93166 18.0521 9.15799 18.0521C8.38356 18.0514 8.00955 17.4482 7.80822 17.1243C7.78774 17.091 7.76284 17.0511 7.73795 17.0127C7.71377 17.0508 7.68888 17.0906 7.66839 17.1239C7.46856 17.4446 7.09745 18.0367 6.33916 18.0481L2.93331 22.408C2.45097 23.0272 2.69688 23.5334 3.48302 23.5334C4.33502 23.5334 4.71784 22.6437 5.52667 22.6437C6.33625 22.6437 6.33625 24 7.14508 24C7.95461 24 7.95461 22.6437 8.76344 22.6437C9.57302 22.6437 9.57302 24 10.3818 24C11.1914 24 11.1914 22.6437 12.0002 22.6437C12.8098 22.6437 12.8098 24 13.6186 24C14.4282 24 14.4282 22.6437 15.2363 22.6437C16.0465 22.6437 16.0465 24 16.8539 24C17.6635 24 17.6635 22.6437 18.4723 22.6437C19.2819 22.6437 19.6654 23.5334 20.5167 23.5334C21.3027 23.5334 21.5494 23.0272 21.0662 22.408Z" fill="#FFFFFF"/>
<path d="M6.31788 17.1956C7.02859 17.1956 7.02859 16.0538 7.73861 16.0545C8.44933 16.0545 8.44787 17.1971 9.15789 17.1978C9.86936 17.1978 9.87006 16.0556 10.5808 16.0567C11.2908 16.0567 11.2901 17.1989 12.0001 17.1997C12.7102 17.1997 12.7109 16.0574 13.4209 16.0589C14.1316 16.0589 14.1309 17.2007 14.8409 17.2015C15.5516 17.2015 15.5516 16.0596 16.2616 16.0607C16.9724 16.0607 16.9717 17.2026 17.6816 17.2037C18.467 17.2037 18.7093 16.7022 18.2196 16.0882L15.3635 12.503C15.2471 12.5228 15.1256 12.5359 14.9975 12.5359C14.4881 12.5359 14.1814 12.2432 13.9984 12.0027C13.8146 12.2432 13.5087 12.5359 12.9992 12.5359C12.4905 12.5359 12.1838 12.2432 12.0001 12.0027C11.8164 12.2432 11.5097 12.5359 11.0002 12.5359C10.4915 12.5359 10.1848 12.2435 10.0011 12.0031C9.81808 12.2435 9.51137 12.5359 9.00264 12.5359C8.87458 12.5359 8.75378 12.5228 8.63739 12.503L5.7805 16.079C5.29019 16.6925 5.53178 17.1949 6.31788 17.1956Z" fill="#FFFFFF"/>
<path d="M9.0035 11.6819C9.50272 11.6819 9.50272 10.9207 10.0019 10.9207C10.5011 10.9207 10.5011 11.6819 11.001 11.6819C11.5017 11.6819 11.5017 10.9207 12.0001 10.9207C12.5001 10.9207 12.5001 11.6819 13 11.6819C13.4985 11.6819 13.4985 10.9207 13.9992 10.9207C14.4984 10.9207 14.4984 11.6819 14.9976 11.6819C15.783 11.6819 16.0545 11.1567 15.6014 10.5159L12.8236 6.58885C12.372 5.94695 11.6291 5.94695 11.1753 6.58885L8.39895 10.5159C7.94511 11.1567 8.21666 11.6819 9.0035 11.6819Z" fill="#FFFFFF"/>
<path d="M10.0151 6.10748L12.0001 4.88325L13.9838 6.10748L13.4333 3.84169L15.2105 2.33278L12.8858 2.15672L12.0001 0L11.1137 2.15672L8.78906 2.33278L10.5662 3.84169L10.0151 6.10748Z" fill="#FFFFFF"/>
</g>
<defs>
<clipPath id="clip0_4812_22523">
<rect width="24" height="24" fill="white"/>
</clipPath>
</defs>
</svg>
