<svg width="24" height="24" viewBox="0 0 24 24" fill="none" xmlns="http://www.w3.org/2000/svg">
<path d="M10.6366 11.2138V12.7858L11.9967 13.5716L13.3568 12.7858V11.2138L11.9967 10.428L10.6366 11.2138Z" fill="#FFFFFF"/>
<path d="M22.5383 15.3364L20.2464 15.9481L18.7169 15.0634L20.9289 14.4704C21.0184 14.4464 21.1022 14.4051 21.1757 14.3487C21.2492 14.2923 21.3108 14.222 21.3571 14.1418C21.4034 14.0615 21.4333 13.9729 21.4453 13.8811C21.4573 13.7892 21.451 13.6959 21.4269 13.6065C21.4028 13.5171 21.3612 13.4333 21.3047 13.36C21.2481 13.2866 21.1777 13.2251 21.0973 13.1791C21.017 13.133 20.9283 13.1032 20.8364 13.0914C20.7446 13.0797 20.6513 13.0862 20.5619 13.1105L16.9853 14.0657L16.8865 14.0094V9.99048L16.9853 9.93396L20.5619 10.8892C20.6212 10.9077 20.6831 10.9173 20.7452 10.9174C20.901 10.9163 21.0521 10.8641 21.1753 10.7689C21.2986 10.6737 21.3872 10.5407 21.4277 10.3903C21.4516 10.301 21.4576 10.2079 21.4455 10.1162C21.4333 10.0246 21.4032 9.93624 21.3568 9.85625C21.3105 9.77625 21.2489 9.70618 21.1754 9.65004C21.102 9.5939 21.0182 9.55279 20.9288 9.52907L18.7169 8.93623L20.2464 8.05155L22.5383 8.66324C22.5979 8.68028 22.6598 8.68818 22.7218 8.68668C22.8924 8.68617 23.057 8.62368 23.185 8.51086C23.313 8.39803 23.3956 8.24255 23.4174 8.07337C23.4393 7.90418 23.3989 7.73281 23.3039 7.59116C23.2088 7.44951 23.0655 7.34724 22.9006 7.30337L21.0136 6.79509L21.5171 4.90327C21.5651 4.72292 21.5396 4.53085 21.446 4.36934C21.3525 4.20783 21.1986 4.09009 21.0182 4.04204C20.8379 3.99399 20.6458 4.01955 20.4843 4.1131C20.3228 4.20666 20.205 4.36054 20.157 4.5409L19.5405 6.82795L18.011 7.71262L18.6041 5.50094C18.6284 5.41117 18.6347 5.31749 18.6227 5.22528C18.6107 5.13306 18.5806 5.04413 18.5341 4.96359C18.4876 4.88305 18.4256 4.81249 18.3518 4.75596C18.278 4.69943 18.1937 4.65804 18.1038 4.63417C18.0139 4.61031 17.9202 4.60443 17.8281 4.61689C17.7359 4.62935 17.6471 4.65988 17.5668 4.70675C17.4865 4.75362 17.4162 4.8159 17.36 4.89C17.3038 4.9641 17.2629 5.04858 17.2394 5.13857L16.2794 8.71034L16.1806 8.76687L12.7028 6.76199V6.64435L15.3194 4.02779C15.3849 3.96228 15.4368 3.88451 15.4723 3.79892C15.5077 3.71333 15.5259 3.62159 15.5259 3.52896C15.5259 3.43632 15.5077 3.34459 15.4722 3.25901C15.4367 3.17343 15.3848 3.09567 15.3193 3.03017C15.2537 2.96467 15.176 2.91272 15.0904 2.87728C15.0048 2.84184 14.9131 2.8236 14.8204 2.82361C14.7278 2.82362 14.6361 2.84188 14.5505 2.87734C14.4649 2.9128 14.3871 2.96477 14.3216 3.03028L12.7028 4.64911V2.87956L14.3782 1.20418C14.4437 1.13867 14.4956 1.06089 14.5311 0.975305C14.5665 0.889715 14.5848 0.797983 14.5847 0.705345C14.5847 0.612708 14.5665 0.52098 14.531 0.435398C14.4956 0.349816 14.4436 0.272056 14.3781 0.206559C14.3126 0.141061 14.2348 0.0891088 14.1492 0.0536674C14.0636 0.018226 13.9719 -1.02067e-05 13.8792 4.28571e-09C13.7866 1.02153e-05 13.6949 0.0182666 13.6093 0.0537269C13.5237 0.0891872 13.446 0.141157 13.3805 0.206669L11.9969 1.59024L10.6133 0.206701C10.4811 0.0743936 10.3017 5.27378e-05 10.1146 3.21234e-05C9.92747 1.1509e-05 9.74804 0.0743129 9.61573 0.206591C9.48342 0.338869 9.40908 0.518288 9.40906 0.705378C9.40904 0.892468 9.48334 1.0719 9.61562 1.20421L11.291 2.8796V4.64917L9.67215 3.0303C9.60665 2.96478 9.52889 2.91281 9.44331 2.87735C9.35773 2.84189 9.266 2.82364 9.17336 2.82363C9.08073 2.82362 8.98899 2.84185 8.9034 2.87729C8.81781 2.91274 8.74004 2.96469 8.67453 3.03019C8.60902 3.09568 8.55705 3.17344 8.52159 3.25902C8.48613 3.34461 8.46787 3.43634 8.46786 3.52897C8.46785 3.62161 8.48609 3.71334 8.52153 3.79893C8.55697 3.88452 8.60892 3.96229 8.67442 4.0278L11.291 6.64436V6.76201L7.81322 8.76689L7.71441 8.71035L6.75434 5.13858C6.73083 5.04866 6.6898 4.96427 6.6336 4.89025C6.5774 4.81623 6.50714 4.75404 6.42684 4.70723C6.34655 4.66043 6.2578 4.62994 6.1657 4.61751C6.0736 4.60509 5.97995 4.61097 5.89012 4.63482C5.80029 4.65867 5.71606 4.70002 5.64225 4.7565C5.56845 4.81299 5.50652 4.88348 5.46002 4.96395C5.41352 5.04443 5.38337 5.13328 5.3713 5.22544C5.35922 5.31759 5.36546 5.41121 5.38965 5.50095L5.98249 7.71263L5.64838 7.51984L4.45304 6.82796L3.84136 4.54091C3.79277 4.36053 3.67468 4.20676 3.51294 4.11327C3.35121 4.01979 3.15902 3.99422 2.97846 4.04216C2.79791 4.09011 2.64372 4.20765 2.54967 4.36906C2.45561 4.53046 2.42936 4.72256 2.47667 4.90329L2.98014 6.79509L1.09315 7.29855C0.928044 7.34283 0.784608 7.4455 0.689457 7.58751C0.594305 7.72952 0.553898 7.90122 0.575732 8.07076C0.597567 8.2403 0.680161 8.39616 0.808189 8.50943C0.936217 8.62269 1.10099 8.68567 1.27192 8.68668C1.33395 8.68817 1.39585 8.68026 1.45552 8.66324L3.74716 8.05155L4.9425 8.7432L5.27661 8.93623L3.06493 9.52907C2.97557 9.55277 2.89177 9.59387 2.81831 9.65C2.74486 9.70614 2.6832 9.77621 2.63686 9.85621C2.59052 9.9362 2.56042 10.0246 2.54827 10.1162C2.53612 10.2079 2.54217 10.301 2.56607 10.3903C2.60652 10.5407 2.69518 10.6737 2.81844 10.7689C2.9417 10.8641 3.09278 10.9163 3.24853 10.9174C3.31072 10.9173 3.37254 10.9077 3.43189 10.8892L7.00849 9.93395L7.1073 9.99047V14.0094L7.00849 14.0657L3.43188 13.1057C3.25033 13.0589 3.05765 13.0855 2.89559 13.1798C2.73354 13.2741 2.61514 13.4284 2.56606 13.6094C2.54216 13.6987 2.53611 13.7918 2.54826 13.8834C2.56041 13.975 2.59052 14.0634 2.63686 14.1434C2.6832 14.2233 2.74486 14.2934 2.81831 14.3495C2.89177 14.4056 2.97557 14.4467 3.06492 14.4704L5.2766 15.0634L3.74715 15.9481L1.45551 15.3364C1.27515 15.2884 1.08308 15.3139 0.921571 15.4075C0.760059 15.501 0.642326 15.6549 0.594273 15.8353C0.546219 16.0156 0.571782 16.2077 0.665337 16.3692C0.758893 16.5307 0.912777 16.6485 1.09314 16.6965L2.98014 17.2046L2.47668 19.0918C2.45194 19.1814 2.44525 19.2751 2.45699 19.3673C2.46873 19.4595 2.49868 19.5485 2.54509 19.629C2.5915 19.7096 2.65345 19.7801 2.72735 19.8365C2.80124 19.8929 2.88561 19.9341 2.97554 19.9576C3.03513 19.9747 3.09695 19.9826 3.15891 19.9811C3.31366 19.9809 3.46403 19.9296 3.58661 19.8351C3.7092 19.7407 3.79715 19.6084 3.83679 19.4588L4.45307 17.1717L5.98251 16.2871L5.38967 18.4987C5.36576 18.588 5.3597 18.6812 5.37184 18.7728C5.38398 18.8645 5.41408 18.9529 5.46042 19.0329C5.50676 19.1129 5.56843 19.1829 5.64189 19.2391C5.71535 19.2952 5.79917 19.3363 5.88853 19.36C5.94797 19.3786 6.00986 19.3881 6.07213 19.3882C6.22784 19.3871 6.37887 19.3349 6.50209 19.2397C6.62531 19.1444 6.71392 19.0115 6.75436 18.8611L7.7144 15.2893L7.81321 15.2328L11.291 17.2377V17.3553L8.67442 19.9719C8.54214 20.1042 8.46784 20.2837 8.46786 20.4707C8.46788 20.6578 8.54222 20.8373 8.67453 20.9695C8.80683 21.1018 8.98627 21.1761 9.17336 21.1761C9.36045 21.1761 9.53987 21.1017 9.67214 20.9694L11.291 19.3506V21.1202L9.61562 22.7955C9.55012 22.861 9.49817 22.9387 9.46273 23.0243C9.42729 23.1099 9.40905 23.2017 9.40906 23.2943C9.40907 23.3869 9.42733 23.4787 9.46279 23.5642C9.49825 23.6498 9.55022 23.7276 9.61573 23.7931C9.68124 23.8586 9.75901 23.9105 9.8446 23.946C9.93019 23.9814 10.0219 23.9996 10.1146 23.9996C10.2072 23.9996 10.2989 23.9814 10.3845 23.9459C10.4701 23.9104 10.5479 23.8585 10.6133 23.793L11.9969 22.4094L13.3804 23.793C13.4459 23.8586 13.5236 23.9107 13.6092 23.9462C13.6948 23.9817 13.7866 24 13.8793 24C13.972 24 14.0637 23.9817 14.1493 23.9462C14.2349 23.9107 14.3127 23.8586 14.3781 23.793C14.4441 23.7277 14.4965 23.65 14.5322 23.5644C14.5679 23.4788 14.5863 23.387 14.5863 23.2942C14.5863 23.2014 14.5679 23.1096 14.5322 23.024C14.4965 22.9384 14.4441 22.8607 14.3781 22.7955L12.7028 21.1201V19.3505L14.3216 20.9694C14.3871 21.035 14.4648 21.0871 14.5504 21.1226C14.636 21.1581 14.7278 21.1764 14.8205 21.1764C14.9132 21.1764 15.0049 21.1581 15.0905 21.1226C15.1761 21.0871 15.2539 21.035 15.3193 20.9694C15.3853 20.9041 15.4377 20.8265 15.4734 20.7408C15.5091 20.6552 15.5275 20.5634 15.5275 20.4706C15.5275 20.3778 15.5091 20.286 15.4734 20.2004C15.4377 20.1148 15.3853 20.0371 15.3193 19.9719L12.7028 17.3553V17.2376L16.1806 15.2328L16.2794 15.2893L17.2394 18.8611C17.2798 19.0115 17.3684 19.1445 17.4916 19.2397C17.6148 19.3349 17.7659 19.3871 17.9216 19.3882C17.9835 19.3873 18.0451 19.3795 18.1053 19.3648C18.2857 19.3152 18.4394 19.1965 18.5328 19.0343C18.6262 18.8722 18.6518 18.6797 18.6041 18.4987L18.0111 16.287L19.5405 17.1717L20.157 19.4588C20.196 19.6087 20.2837 19.7414 20.4064 19.8359C20.5291 19.9305 20.6798 19.9815 20.8347 19.9811C20.8967 19.9826 20.9586 19.9747 21.0183 19.9576C21.1079 19.9344 21.192 19.8935 21.2657 19.8375C21.3394 19.7815 21.4013 19.7114 21.4477 19.6313C21.4941 19.5511 21.5241 19.4626 21.536 19.3708C21.548 19.279 21.5415 19.1857 21.5171 19.0964L21.0136 17.2046L22.9006 16.6965C23.081 16.6485 23.2349 16.5307 23.3284 16.3692C23.422 16.2077 23.4475 16.0157 23.3995 15.8353C23.3514 15.6549 23.2337 15.501 23.0722 15.4075C22.9107 15.3139 22.7186 15.2884 22.5383 15.3364ZM14.7688 13.1951C14.7694 13.3185 14.7371 13.4399 14.675 13.5467C14.6129 13.6534 14.5234 13.7416 14.4158 13.8021L12.3498 14.9975C12.2424 15.0592 12.1207 15.0917 11.9969 15.0917C11.873 15.0917 11.7513 15.0592 11.6439 14.9975L9.57793 13.8021C9.47031 13.7416 9.38083 13.6534 9.31877 13.5467C9.25671 13.4399 9.22433 13.3185 9.22499 13.1951V10.8044C9.22489 10.6804 9.25746 10.5586 9.31943 10.4512C9.38139 10.3438 9.47055 10.2547 9.57793 10.1927L11.6439 9.00218C11.7511 8.93976 11.8729 8.90687 11.9969 8.90687C12.1209 8.90687 12.2427 8.93976 12.3498 9.00218L14.4158 10.1927C14.5232 10.2547 14.6124 10.3438 14.6743 10.4512C14.7363 10.5586 14.7689 10.6804 14.7688 10.8044V13.1951Z" fill="#FFFFFF"/>
</svg>
