<svg width="24" height="24" viewBox="0 0 24 24" fill="none" xmlns="http://www.w3.org/2000/svg">
<path fill-rule="evenodd" clip-rule="evenodd" d="M12.0001 2.5C10.58 2.5 9.22097 3.0759 8.22125 4.09622C7.222 5.11606 6.66311 6.49628 6.66311 7.93252V9.62897H5.84079C4.98554 9.62897 4.18122 9.87053 3.57202 10.297C2.96503 10.7219 2.5 11.3761 2.5 12.1777V18.9564C2.5 19.758 2.96503 20.4122 3.57202 20.8371C4.18122 21.2636 4.98554 21.5052 5.84079 21.5052H18.1645C19.0198 21.5052 19.8241 21.2636 20.4333 20.8371C21.0403 20.4122 21.5053 19.758 21.5053 18.9564V12.1777C21.5053 11.3761 21.0403 10.7219 20.4333 10.297C19.8241 9.87053 19.0198 9.62897 18.1645 9.62897H17.337V7.93252C17.337 6.49628 16.7782 5.11606 15.7789 4.09622C14.7792 3.0759 13.4202 2.5 12.0001 2.5ZM15.937 9.62897V7.93252C15.937 6.85847 15.5189 5.83122 14.7789 5.07602C14.0394 4.32131 13.0396 3.9 12.0001 3.9C10.9606 3.9 9.96072 4.32131 9.22124 5.07602C8.48129 5.83122 8.06311 6.85847 8.06311 7.93252V9.62897H15.937ZM3.9 12.1777C3.9 11.9583 4.02613 11.6881 4.37492 11.4439C4.7215 11.2013 5.23758 11.029 5.84079 11.029H18.1645C18.7677 11.029 19.2838 11.2013 19.6304 11.4439C19.9792 11.6881 20.1053 11.9583 20.1053 12.1777V18.9564C20.1053 19.1759 19.9792 19.4461 19.6304 19.6902C19.2838 19.9329 18.7677 20.1052 18.1645 20.1052H5.84079C5.23758 20.1052 4.7215 19.9329 4.37492 19.6902C4.02613 19.4461 3.9 19.1759 3.9 18.9564V12.1777Z" fill="white" fill-opacity="0.32"/>
<path d="M10.5 15.5C10.5 14.6716 11.1716 14 12 14C12.8284 14 13.5 14.6716 13.5 15.5C13.5 16.3284 12.8284 17 12 17C11.1716 17 10.5 16.3284 10.5 15.5Z" fill="white" fill-opacity="0.32"/>
</svg>
