<svg width="24" height="24" viewBox="0 0 24 24" fill="none" xmlns="http://www.w3.org/2000/svg">
<path d="M19.4955 19.3068C19.3933 19.307 19.292 19.289 19.1977 19.254C19.1033 19.2189 19.0176 19.1675 18.9457 19.1026L1.22533 3.18034C1.08042 3.05011 0.999368 2.87379 1 2.69018C1.00064 2.50656 1.08291 2.3307 1.22872 2.20126C1.37452 2.07183 1.57192 1.99944 1.77749 2C1.98306 2.00057 2.17995 2.07406 2.32486 2.20429L20.0447 18.1257C20.153 18.2226 20.2266 18.346 20.2564 18.4803C20.2861 18.6146 20.2706 18.7537 20.2118 18.8801C20.153 19.0066 20.0536 19.1146 19.9261 19.1905C19.7986 19.2665 19.6487 19.3069 19.4955 19.3068Z" fill="white"/>
<path fill-rule="evenodd" clip-rule="evenodd" d="M15.8582 18.0713L14.8685 17.1802C14.2108 17.6396 13.5782 18.0212 12.9618 18.393C12.6558 18.5775 12.3538 18.7597 12.0547 18.9478C11.7412 18.7517 11.4259 18.5621 11.1076 18.3709L11.1075 18.3708C9.2182 17.2354 7.22476 16.0374 4.88576 13.0264C4.37053 12.3631 3.3 10.8679 3.3 8.93126C3.3 8.28707 3.44787 7.67704 3.7117 7.13332L2.7158 6.2365C2.26035 7.03063 2 7.95059 2 8.93126C2 11.3292 3.31427 13.1225 3.85912 13.8239C6.36003 17.0434 8.59303 18.3827 10.5086 19.5316C11.0509 19.8569 11.5678 20.1669 12.0581 20.5C12.529 20.1752 13.031 19.873 13.5626 19.553C14.2758 19.1237 15.0422 18.6624 15.8582 18.0713ZM5.89974 3.72086C6.38823 3.57713 6.9053 3.5 7.44042 3.5C8.86472 3.5 10.1612 4.04641 11.131 4.94071C11.4611 5.24517 11.7534 5.58995 12 5.96723C12.2466 5.58995 12.5389 5.24517 12.869 4.94071C13.8388 4.04641 15.1353 3.5 16.5596 3.5C19.5642 3.5 22 5.93166 22 8.93126C22 11.3017 20.7183 13.0835 20.1761 13.7922C19.7249 14.382 19.2831 14.9093 18.8513 15.3838L17.8864 14.515C18.2939 14.0665 18.7125 13.5659 19.1437 13.0023C19.6554 12.3334 20.7 10.847 20.7 8.93126C20.7 6.65169 18.8483 4.8 16.5596 4.8C15.1069 4.8 13.8288 5.54532 13.0882 6.67846L12 8.34338L10.9118 6.67846C10.1712 5.54532 8.89309 4.8 7.44042 4.8C7.32997 4.8 7.22055 4.80431 7.1123 4.81277L5.89974 3.72086Z" fill="white" fill-opacity="0.88"/>
</svg>
