<svg width="10" height="10" viewBox="0 0 10 10" fill="none" xmlns="http://www.w3.org/2000/svg">
<path d="M6.08142 4.99999L9.10745 1.97396C9.25107 1.83059 9.33185 1.63605 9.33203 1.43313C9.33221 1.23021 9.25177 1.03552 9.10841 0.891909C8.96504 0.748294 8.7705 0.667512 8.56758 0.667332C8.36466 0.667153 8.16997 0.747592 8.02636 0.890954L5.00033 3.91699L1.97429 0.890954C1.83068 0.747339 1.63589 0.666656 1.43279 0.666656C1.22969 0.666656 1.0349 0.747339 0.891289 0.890954C0.747674 1.03457 0.666992 1.22935 0.666992 1.43245C0.666992 1.63556 0.747674 1.83034 0.891289 1.97396L3.91732 4.99999L0.891289 8.02602C0.747674 8.16964 0.666992 8.36442 0.666992 8.56752C0.666992 8.77063 0.747674 8.96541 0.891289 9.10903C1.0349 9.25264 1.22969 9.33332 1.43279 9.33332C1.63589 9.33332 1.83068 9.25264 1.97429 9.10903L5.00033 6.08299L8.02636 9.10903C8.16997 9.25264 8.36476 9.33332 8.56786 9.33332C8.77096 9.33332 8.96575 9.25264 9.10936 9.10903C9.25298 8.96541 9.33366 8.77063 9.33366 8.56752C9.33366 8.36442 9.25298 8.16964 9.10936 8.02602L6.08142 4.99999Z" fill="white" fill-opacity="0.48"/>
</svg>
