<svg width="13" height="14" viewBox="0 0 13 14" fill="none" xmlns="http://www.w3.org/2000/svg">
<path fill-rule="evenodd" clip-rule="evenodd" d="M2.58596 1.3125H8.4551C8.68662 1.3125 8.87431 1.5002 8.87431 1.73171V12.2682C8.87431 12.4997 8.68662 12.6874 8.4551 12.6874H2.58596C2.35444 12.6874 2.16675 12.4997 2.16675 12.2682V1.73171C2.16675 1.5002 2.35444 1.3125 2.58596 1.3125ZM4.37465 11.0105C4.60616 11.0105 4.79386 10.8228 4.79386 10.5913V10.228C4.79386 9.99647 4.60616 9.80878 4.37465 9.80878C4.14313 9.80878 3.95543 9.99647 3.95543 10.228V10.5913C3.95543 10.8228 4.14313 11.0105 4.37465 11.0105ZM4.37465 8.71877C4.60616 8.71877 4.79386 8.53107 4.79386 8.29956V7.96419C4.79386 7.73267 4.60616 7.54497 4.37465 7.54497C4.14313 7.54497 3.95543 7.73267 3.95543 7.96419V8.29956C3.95543 8.53107 4.14313 8.71877 4.37465 8.71877ZM4.37465 6.45497C4.60616 6.45497 4.79386 6.26727 4.79386 6.03575V5.70038C4.79386 5.46887 4.60616 5.28117 4.37465 5.28117C4.14313 5.28117 3.95543 5.46887 3.95543 5.70038V6.03575C3.95543 6.26727 4.14313 6.45497 4.37465 6.45497ZM4.37465 4.19117C4.60616 4.19117 4.79386 4.00347 4.79386 3.77195V3.40862C4.79386 3.1771 4.60616 2.9894 4.37465 2.9894C4.14313 2.9894 3.95543 3.1771 3.95543 3.40862V3.77195C3.95543 4.00347 4.14313 4.19117 4.37465 4.19117ZM6.66641 11.0105C6.89793 11.0105 7.08563 10.8228 7.08563 10.5913V10.228C7.08563 9.99647 6.89793 9.80878 6.66641 9.80878C6.4349 9.80878 6.2472 9.99647 6.2472 10.228V10.5913C6.2472 10.8228 6.4349 11.0105 6.66641 11.0105ZM6.66641 8.71877C6.89793 8.71877 7.08563 8.53107 7.08563 8.29956V7.96419C7.08563 7.73267 6.89793 7.54497 6.66641 7.54497C6.4349 7.54497 6.2472 7.73267 6.2472 7.96419V8.29956C6.2472 8.53107 6.4349 8.71877 6.66641 8.71877ZM6.66641 6.45497C6.89793 6.45497 7.08563 6.26727 7.08563 6.03575V5.70038C7.08563 5.46887 6.89793 5.28117 6.66641 5.28117C6.4349 5.28117 6.2472 5.46887 6.2472 5.70038V6.03575C6.2472 6.26727 6.4349 6.45497 6.66641 6.45497ZM6.66641 4.19117C6.89793 4.19117 7.08563 4.00347 7.08563 3.77195V3.40862C7.08563 3.1771 6.89793 2.9894 6.66641 2.9894C6.4349 2.9894 6.2472 3.1771 6.2472 3.40862V3.77195C6.2472 4.00347 6.4349 4.19117 6.66641 4.19117ZM9.85246 5.70042H10.8027C11.0342 5.70042 11.2219 5.88811 11.2219 6.11963V12.2683C11.2219 12.4998 11.0342 12.6875 10.8027 12.6875H9.85246C9.77529 12.6875 9.71271 12.6249 9.71271 12.5478V5.84016C9.71271 5.76299 9.77529 5.70042 9.85246 5.70042Z" fill="#EBC50A"/>
</svg>
