<svg width="13" height="14" viewBox="0 0 13 14" fill="none" xmlns="http://www.w3.org/2000/svg">
<path fill-rule="evenodd" clip-rule="evenodd" d="M1.66865 11.0792H11.3313H1.66865Z" fill="#EBC50A"/>
<path fill-rule="evenodd" clip-rule="evenodd" d="M6.49998 7.32145V11.0792V7.32145Z" fill="#EBC50A"/>
<path fill-rule="evenodd" clip-rule="evenodd" d="M9.72087 7.32145V11.0792V7.32145Z" fill="#EBC50A"/>
<path fill-rule="evenodd" clip-rule="evenodd" d="M3.27909 7.32145V11.0792V7.32145Z" fill="#EBC50A"/>
<path fill-rule="evenodd" clip-rule="evenodd" d="M6.01984 2.13001C6.32209 1.97888 6.67787 1.97888 6.98012 2.13001L11.3513 4.3156C12.314 4.79693 11.9714 6.24782 10.8952 6.24782H2.10479C1.02852 6.24782 0.686003 4.79693 1.64865 4.3156L6.01984 2.13001ZM3.27909 6.78463C3.57557 6.78463 3.81591 7.02497 3.81591 7.32145V10.5423H5.96317V7.32145C5.96317 7.02497 6.20351 6.78463 6.49998 6.78463C6.79646 6.78463 7.03679 7.02497 7.03679 7.32145V10.5423H9.18405V7.32145C9.18405 7.02497 9.42439 6.78463 9.72087 6.78463C10.0173 6.78463 10.2577 7.02497 10.2577 7.32145V10.5423H11.3313C11.6278 10.5423 11.8681 10.7827 11.8681 11.0792C11.8681 11.3756 11.6278 11.616 11.3313 11.616H1.66865C1.37217 11.616 1.13183 11.3756 1.13183 11.0792C1.13183 10.7827 1.37217 10.5423 1.66865 10.5423H2.74228V7.32145C2.74228 7.02497 2.98262 6.78463 3.27909 6.78463Z" fill="#EBC50A"/>
</svg>
