<svg fill="none" height="48" viewBox="0 0 48 48" width="48" xmlns="http://www.w3.org/2000/svg"><path d="m42 23.527v.9457c-2.9412.4648-9.2484 1.5548-12.35 2.7409-1.1059.4247-1.9875 1.2983-2.4203 2.3962-1.1941 3.0855-2.292 9.4328-2.7569 12.3901h-.9456c-.4729-2.9493-1.5628-9.2965-2.7569-12.3901-.4328-1.1059-1.3144-1.9795-2.4203-2.3962-3.1016-1.1861-9.40877-2.2761-12.35-2.7409v-.9457c2.94123-.4648 9.2484-1.5547 12.35-2.7408 1.1059-.4248 1.9875-1.2983 2.4203-2.3963 1.1941-3.0855 2.292-9.43276 2.7569-12.39002h.9456c.4729 2.94924 1.5628 9.29652 2.7569 12.39002.4328 1.106 1.3144 1.9795 2.4203 2.3963 3.1016 1.1861 9.4088 2.276 12.35 2.7408z" fill="#fff"/></svg>