<svg width="24" height="24" viewBox="0 0 24 24" fill="none" xmlns="http://www.w3.org/2000/svg">
<path fill-rule="evenodd" clip-rule="evenodd" d="M6.3751 9.64998C6.05021 9.64998 5.73862 9.77904 5.50889 10.0088C5.27916 10.2385 5.1501 10.5501 5.1501 10.875V19.875C5.1501 20.1999 5.27916 20.5114 5.50889 20.7412C5.73862 20.9709 6.05021 21.1 6.3751 21.1H17.6251C17.95 21.1 18.2616 20.9709 18.4913 20.7412C18.721 20.5114 18.8501 20.1999 18.8501 19.875V10.875C18.8501 10.5501 18.721 10.2385 18.4913 10.0088C18.2616 9.77904 17.95 9.64998 17.6251 9.64998H15.7501C15.3911 9.64998 15.1001 9.35896 15.1001 8.99998C15.1001 8.64099 15.3911 8.34998 15.7501 8.34998H17.6251C18.2948 8.34998 18.937 8.616 19.4105 9.08953C19.8841 9.56306 20.1501 10.2053 20.1501 10.875V19.875C20.1501 20.5446 19.8841 21.1869 19.4105 21.6604C18.937 22.1339 18.2948 22.4 17.6251 22.4H6.3751C5.70543 22.4 5.06318 22.1339 4.58965 21.6604C4.11612 21.1869 3.8501 20.5446 3.8501 19.875V10.875C3.8501 10.2053 4.11612 9.56306 4.58965 9.08953C5.06318 8.616 5.70543 8.34998 6.3751 8.34998H8.2501C8.60908 8.34998 8.9001 8.64099 8.9001 8.99998C8.9001 9.35896 8.60908 9.64998 8.2501 9.64998H6.3751Z" fill="white" fill-opacity="0.88"/>
<path fill-rule="evenodd" clip-rule="evenodd" d="M11.5405 1.79036C11.7943 1.53652 12.2059 1.53652 12.4597 1.79036L16.2097 5.54036C16.4636 5.7942 16.4636 6.20575 16.2097 6.4596C15.9559 6.71344 15.5443 6.71344 15.2905 6.4596L12.0001 3.16921L8.70972 6.4596C8.45588 6.71344 8.04432 6.71344 7.79048 6.4596C7.53664 6.20575 7.53664 5.7942 7.79048 5.54036L11.5405 1.79036Z" fill="white" fill-opacity="0.88"/>
<path fill-rule="evenodd" clip-rule="evenodd" d="M12.0001 1.59998C12.3591 1.59998 12.6501 1.89099 12.6501 2.24998V15.0469C12.6501 15.4058 12.3591 15.6968 12.0001 15.6968C11.6411 15.6968 11.3501 15.4058 11.3501 15.0469V2.24998C11.3501 1.89099 11.6411 1.59998 12.0001 1.59998Z" fill="white" fill-opacity="0.88"/>
</svg>
